<svg width="33" height="28" viewBox="0 0 33 28" fill="none" xmlns="http://www.w3.org/2000/svg">
<path d="M28.9198 0.872969V24.5662H2.96051V0.872969C2.96051 0.390836 3.35135 0 3.83348 0H28.0468C28.5289 0 28.9198 0.390836 28.9198 0.872969Z" fill="#E1E1E1"/>
<path d="M25.3355 6.82576H30.3805C30.8647 6.82576 31.2575 7.21864 31.2575 7.70283V12.0297C31.2575 12.5139 30.8647 12.9068 30.3805 12.9068H27.6405" stroke="#4D4D4D" stroke-width="0.5" stroke-miterlimit="10"/>
<path d="M32.0218 7.77154C32.0218 7.61562 31.8956 7.48944 31.7397 7.48944H30.5579C30.402 7.48944 30.2758 7.61562 30.2758 7.77154V9.85292L32.0207 8.10801V7.77154H32.0218Z" fill="#666666"/>
<path d="M30.558 10.2715H31.7397C31.8956 10.2715 32.0218 10.1454 32.0218 9.98943V8.10808L30.2769 9.85299V9.98943C30.2769 10.1454 30.4031 10.2715 30.558 10.2715Z" fill="#4D4D4D"/>
<path d="M31.793 10.6172H30.5056C30.3795 10.6172 30.2769 10.7198 30.2769 10.846V12.2237C30.2769 12.3037 30.32 12.3703 30.3815 12.4114L32.0095 10.7834C31.9818 10.688 31.8977 10.6172 31.793 10.6172Z" fill="#666666"/>
<path d="M30.5057 12.4524H31.7931C31.9192 12.4524 32.0218 12.3498 32.0218 12.2237V10.846C32.0218 10.8244 32.0146 10.8039 32.0095 10.7844L30.3815 12.4124C30.4174 12.435 30.4585 12.4524 30.5057 12.4524Z" fill="#4D4D4D"/>
<path d="M6.68625 6.82574H1.64129C1.15711 6.82574 0.764221 7.21862 0.764221 7.70281V12.0297C0.764221 12.5139 1.15711 12.9068 1.64129 12.9068H4.38124" stroke="#4D4D4D" stroke-width="0.5" stroke-miterlimit="10"/>
<path d="M0 7.77154C0 7.61562 0.126175 7.48944 0.282099 7.48944H1.46384C1.61976 7.48944 1.74594 7.61562 1.74594 7.77154V9.85292L0.00102556 8.10801V7.77154H0Z" fill="#666666"/>
<path d="M1.46384 10.2715H0.282099C0.126175 10.2715 0 10.1454 0 9.98943V8.10808L1.74491 9.85299V9.98943C1.74491 10.1454 1.61874 10.2715 1.46384 10.2715Z" fill="#4D4D4D"/>
<path d="M0.228776 10.6172H1.51617C1.64235 10.6172 1.74493 10.7198 1.74493 10.846V12.2237C1.74493 12.3037 1.70185 12.3703 1.6403 12.4114L0.0123291 10.7834C0.0400261 10.688 0.124143 10.6172 0.228776 10.6172Z" fill="#666666"/>
<path d="M1.51615 12.4524H0.228757C0.102581 12.4524 0 12.3498 0 12.2237V10.846C0 10.8244 0.00718052 10.8039 0.0123096 10.7844L1.64028 12.4124C1.60437 12.435 1.56334 12.4524 1.51615 12.4524Z" fill="#4D4D4D"/>
<path d="M6.04822 24.3067V27.9976H7.30689C7.50282 27.9976 7.66285 27.8386 7.66285 27.6416V24.3057H6.04822V24.3067Z" fill="#333333"/>
<path d="M4.43359 24.3082V27.6441C4.43359 27.8401 4.59259 28.0001 4.78955 28.0001H6.04823V24.3092H4.43359V24.3082Z" fill="#4D4D4D"/>
<path d="M25.7253 24.3067V27.9975H24.4667C24.2707 27.9975 24.1107 27.8385 24.1107 27.6416V24.3056H25.7253V24.3067Z" fill="#4D4D4D"/>
<path d="M27.34 24.3068V27.6427C27.34 27.8387 27.181 27.9987 26.984 27.9987H25.7253V24.3078H27.34V24.3068Z" fill="#333333"/>
<path d="M15.9401 14.2342H2.96051V16.9609H15.9401V14.2342Z" fill="#D93800"/>
<path d="M28.9198 14.2342H15.9401V16.9609H28.9198V14.2342Z" fill="#D93800"/>
<path d="M15.9401 18.2154H2.96051V24.5672H15.9401V18.2154Z" fill="#808080"/>
<path d="M28.9198 18.2154H15.9401V24.5672H28.9198V18.2154Z" fill="#666666"/>
<path d="M28.1555 0.667839H3.72369V1.14587H28.1555V0.667839Z" fill="#666666"/>
<path d="M27.0651 2.14607H4.70538V3.49091H27.0651V2.14607Z" fill="#4166BF"/>
<path d="M27.0651 2.14607H15.9401V3.49091H27.0651V2.14607Z" fill="#4166BF"/>
<path d="M15.9401 24.5673H27.7011L27.9422 21.7781H15.9401V24.5673Z" fill="#4166BF"/>
<path d="M3.93811 21.7781L4.17815 24.5673H15.9401V21.7781H3.93811Z" fill="#4166BF"/>
<path d="M15.9401 20.1419V21.778H27.9422L28.0211 20.8589C28.054 20.4732 27.7503 20.1419 27.3636 20.1419H15.9401Z" fill="#AEAEAE"/>
<path d="M15.9401 20.1419H4.51667C4.12994 20.1419 3.8263 20.4732 3.85912 20.8589L3.93811 21.778H15.9401V20.1419Z" fill="#AEAEAE"/>
<path d="M27.7011 12.7981L24.9888 5.77129C24.8811 5.49226 24.6134 5.30864 24.3149 5.30864H15.9401V20.1419H27.4108L27.7011 12.7981Z" fill="white"/>
<path d="M6.89042 5.77129L4.17816 12.7981L4.46949 20.1419H15.9402V5.30864H7.56438C7.26586 5.30864 6.99813 5.49226 6.89042 5.77129Z" fill="white"/>
<path d="M7.32842 6.45411L5.40194 11.4467C5.27269 11.7832 5.51991 12.1443 5.87997 12.1443H15.8847V5.96377H8.04239C7.72644 5.96377 7.44229 6.15867 7.32842 6.45411Z" fill="#4D4D4D"/>
<path d="M23.8369 5.96304H15.8858V12.1436H26.0003C26.3604 12.1436 26.6086 11.7825 26.4784 11.446L24.5509 6.45338C24.437 6.15795 24.1528 5.96304 23.8369 5.96304Z" fill="#4D4D4D"/>
<path d="M15.9401 16.2243H5.367V19.1417H15.9401V16.2243Z" fill="#4D4D4D"/>
<path d="M26.5132 16.2243H15.9401V19.1417H26.5132V16.2243Z" fill="#4D4D4D"/>
<path d="M4.44486 16.2243C4.16482 16.2243 3.93811 16.451 3.93811 16.731V18.4995L5.36707 17.0706V16.2243H4.44486Z" fill="#DB7C12"/>
<path d="M3.93811 18.636C3.93811 18.916 4.16482 19.1427 4.44486 19.1427H5.36707V17.0716L3.93811 18.5006V18.636Z" fill="#DB5B00"/>
<path d="M27.9421 16.7587C27.9421 16.4643 27.7031 16.2253 27.4087 16.2253H26.5132V18.3867L27.9421 16.9577V16.7587Z" fill="#DB7C12"/>
<path d="M26.5132 18.3857V19.1427H27.4087C27.7031 19.1427 27.9421 18.9037 27.9421 18.6093V16.9577L26.5132 18.3857Z" fill="#DB5B00"/>
<path d="M13.1591 5.31784H12.4769V4.81314C12.4769 4.62439 12.6298 4.47257 12.8175 4.47257C13.0062 4.47257 13.1581 4.62542 13.1581 4.81314V5.31784H13.1591Z" fill="#FE4200"/>
<path d="M18.7211 5.31784H19.4032V4.81314C19.4032 4.62439 19.2504 4.47257 19.0627 4.47257C18.8739 4.47257 18.7221 4.62542 18.7221 4.81314V5.31784H18.7211Z" fill="#D93800"/>
<path d="M15.5996 4.81325V5.31795H15.9402V4.47268C15.7514 4.47268 15.5996 4.62552 15.5996 4.81325Z" fill="#FE4200"/>
<path d="M16.2808 4.81313C16.2808 4.62438 16.1279 4.47256 15.9402 4.47256V5.31783H16.2808V4.81313Z" fill="#D93800"/>
<path d="M15.9401 6.40053V11.7101H5.87996C5.85329 11.7101 5.83174 11.6989 5.81636 11.6753C5.80097 11.6537 5.79892 11.6291 5.8102 11.6055L6.6565 9.40411L6.65855 9.40206L7.73668 6.61185C7.78489 6.48567 7.90902 6.40053 8.04443 6.40053H15.9401Z" fill="#CCE5F5"/>
<path d="M26.0618 11.6728C26.0464 11.6964 26.0269 11.7077 25.9982 11.7077H15.9401V6.39805H23.8368C23.9722 6.39805 24.0963 6.48319 24.1445 6.60937L24.5528 7.66698L25.0503 8.95438L26.071 11.603C26.0813 11.6277 26.0772 11.6512 26.0618 11.6728Z" fill="#CCE5F5"/>
<path d="M15.9402 16.2274V19.6351H10.4972C10.2438 19.6351 10.0263 19.4536 9.98223 19.2033L9.89914 18.7365L9.84887 18.4616L9.75757 17.9446L9.70731 17.6717L9.61601 17.1527L9.5678 16.8819L9.44983 16.2274H15.9402Z" fill="#4166BF"/>
<path d="M22.4304 16.2264L22.3124 16.8808L22.2642 17.1517L22.1729 17.6707L22.1227 17.9436L22.0314 18.4606L21.9811 18.7355L21.898 19.2023C21.8539 19.4536 21.6364 19.6341 21.383 19.6341H15.9401V16.2264H22.4304Z" fill="#4166BF"/>
<path d="M22.0304 18.4595L21.9812 18.7345H9.90018L9.84991 18.4595H22.0304Z" fill="white"/>
<path d="M22.173 17.6697L22.1227 17.9425H9.75858L9.70831 17.6697H22.173Z" fill="white"/>
<path d="M22.3125 16.8798L22.2643 17.1506H9.61603L9.56885 16.8798H22.3125Z" fill="white"/>
<path d="M14.5696 14.2356C14.5696 14.9926 15.183 15.6061 15.9401 15.6061V12.8661C15.183 12.8651 14.5696 13.4785 14.5696 14.2356Z" fill="#FE4200"/>
<path d="M15.9401 12.8636V15.6036C16.6972 15.6036 17.3106 14.9902 17.3106 14.2331C17.3106 13.4771 16.6972 12.8636 15.9401 12.8636Z" fill="#FE4200"/>
<path d="M16.2119 13.3612H15.6672V15.0518H16.2119V13.3612Z" fill="white"/>
<path d="M16.7858 14.4788V13.9341H15.0952V14.4788H16.7858Z" fill="white"/>
<path opacity="0.4" d="M13.2874 6.39906L7.81464 11.7077H5.87996C5.85329 11.7077 5.83174 11.6964 5.81636 11.6728C5.80097 11.6512 5.79892 11.6266 5.8102 11.603L6.6565 9.40162L6.65855 9.39957L9.75446 6.39804H13.2874V6.39906Z" fill="white"/>
<path opacity="0.4" d="M25.0504 8.95536L22.2099 11.7076H20.3881L24.5529 7.66796L25.0504 8.95536Z" fill="white"/>
<path opacity="0.4" d="M21.6211 6.39904L16.1453 11.7076H9.60779L15.0836 6.39904H21.6211Z" fill="white"/>
<path d="M18.2278 11.0439L24.0893 10.6664L24.0667 10.3812L18.2195 10.9372L18.2278 11.0439Z" fill="#333333"/>
<path d="M21.2026 10.8583L23.5671 11.7744C23.6615 11.7477 23.7528 11.7138 23.839 11.6749L21.2385 10.7578L21.2026 10.8583Z" fill="#333333"/>
<path d="M23.3876 11.8647H23.8349C23.9067 11.8647 23.9651 11.8062 23.9651 11.7344C23.9651 11.6626 23.9067 11.6041 23.8349 11.6041H23.3876C23.3158 11.6041 23.2573 11.6626 23.2573 11.7344C23.2563 11.8062 23.3148 11.8647 23.3876 11.8647Z" fill="#3857A3"/>
<path d="M7.94594 11.0439L13.8064 10.6664L13.7839 10.3812L7.93671 10.9372L7.94594 11.0439Z" fill="#333333"/>
<path d="M10.9198 10.8583L13.2853 11.7744C13.3797 11.7477 13.471 11.7138 13.5572 11.6749L10.9567 10.7578L10.9198 10.8583Z" fill="#333333"/>
<path d="M13.1048 11.8647H13.552C13.6238 11.8647 13.6823 11.8062 13.6823 11.7344C13.6823 11.6626 13.6238 11.6041 13.552 11.6041H13.1048C13.033 11.6041 12.9745 11.6626 12.9745 11.7344C12.9735 11.8062 13.0319 11.8647 13.1048 11.8647Z" fill="#4166BF"/>
<path d="M8.94102 18.4195H6.08617C6.05027 18.4195 6.02155 18.3908 6.02155 18.3549V16.9864C6.02155 16.9505 6.05027 16.9218 6.08617 16.9218H8.94102C8.97692 16.9218 9.00564 16.9505 9.00564 16.9864V18.3549C9.00564 18.3897 8.97692 18.4195 8.94102 18.4195Z" fill="#949494"/>
<path d="M22.9393 18.4195H25.7942C25.8301 18.4195 25.8588 18.3908 25.8588 18.3549V16.9864C25.8588 16.9505 25.8301 16.9218 25.7942 16.9218H22.9393C22.9034 16.9218 22.8747 16.9505 22.8747 16.9864V18.3549C22.8747 18.3897 22.9034 18.4195 22.9393 18.4195Z" fill="#949494"/>
<path d="M6.54468 17.6696C6.54468 17.4973 6.68419 17.3588 6.8555 17.3588C7.02784 17.3588 7.16632 17.4983 7.16632 17.6696C7.16632 17.8419 7.02681 17.9804 6.8555 17.9804C6.68316 17.9814 6.54468 17.8419 6.54468 17.6696Z" fill="#C7C7C7"/>
<path d="M25.0248 17.9804C25.1964 17.9804 25.3356 17.8413 25.3356 17.6696C25.3356 17.4979 25.1964 17.3588 25.0248 17.3588C24.8531 17.3588 24.7139 17.4979 24.7139 17.6696C24.7139 17.8413 24.8531 17.9804 25.0248 17.9804Z" fill="#C7C7C7"/>
<path d="M11.1137 20.1419C11.1137 20.4024 11.325 20.6148 11.5866 20.6148H15.9402V20.1419H11.1137Z" fill="#4D4D4D"/>
<path d="M15.9401 20.1419V20.6148H20.2937C20.5542 20.6148 20.7666 20.4034 20.7666 20.1419H15.9401Z" fill="#4D4D4D"/>
<path d="M21.8211 22.3053H10.0591V24.0503H21.8211V22.3053Z" fill="white"/>
<path d="M21.8201 22.3053H15.9401V24.0503H21.8201V22.3053Z" fill="white"/>
<path d="M13.9039 22.4306H13.6932L13.5466 23.3468H13.6788L13.7037 23.1806H13.8804L13.9053 23.3468H14.0505L13.9039 22.4306ZM13.7914 22.5929L13.8608 23.0562H13.722L13.7914 22.5929Z" fill="#FE4200"/>
<path d="M14.3165 22.4306H14.1163V23.3468H14.2419V22.6989L14.3493 23.3468H14.4854L14.5848 22.6898V23.3468H14.721V22.4306H14.5207L14.4225 23.0811L14.3165 22.4306Z" fill="#FE4200"/>
<path d="M15.043 22.4306H14.8257V23.3468H15.0521C15.1961 23.3468 15.2707 23.2709 15.2707 23.1295V23.0549C15.2707 22.9581 15.2406 22.8887 15.1634 22.8586C15.2275 22.8285 15.2563 22.7683 15.2563 22.6741V22.6413C15.2563 22.5 15.1922 22.4306 15.043 22.4306ZM15.0338 22.9345C15.0992 22.9345 15.1267 22.9607 15.1267 23.0458V23.1256C15.1267 23.1937 15.1006 23.2159 15.0521 23.2159H14.9697V22.9345H15.0338ZM15.039 22.5615C15.0901 22.5615 15.1123 22.5903 15.1123 22.6557V22.7068C15.1123 22.7801 15.0796 22.8036 15.026 22.8036H14.9697V22.5615H15.039Z" fill="#FE4200"/>
<path d="M15.3509 22.4306V23.1282C15.3509 23.2748 15.4242 23.3586 15.5655 23.3586C15.7069 23.3586 15.7802 23.2748 15.7802 23.1282V22.4306H15.6441V23.1374C15.6441 23.2028 15.6153 23.2264 15.5695 23.2264C15.5236 23.2264 15.4948 23.2028 15.4948 23.1374V22.4306H15.3509Z" fill="#FE4200"/>
<path d="M15.8789 23.3468H16.2598V23.2159H16.0229V22.4306H15.8789V23.3468Z" fill="#FE4200"/>
<path d="M16.6418 22.4306H16.4311L16.2845 23.3468H16.4167L16.4415 23.1806H16.6182L16.6431 23.3468H16.7884L16.6418 22.4306ZM16.5292 22.5929L16.5986 23.0562H16.4599L16.5292 22.5929Z" fill="#FE4200"/>
<path d="M17.163 23.3468H17.3109V22.4306H17.1827V22.979L17.0348 22.4306H16.8541V23.3468H16.9837V22.6832L17.163 23.3468Z" fill="#FE4200"/>
<path d="M17.6954 23.0052V23.1361C17.6954 23.2015 17.6666 23.2251 17.6208 23.2251C17.575 23.2251 17.5462 23.2015 17.5462 23.1361V22.6413C17.5462 22.5759 17.575 22.551 17.6208 22.551C17.6666 22.551 17.6954 22.5759 17.6954 22.6413V22.7395H17.8315V22.6505C17.8315 22.5039 17.7582 22.4201 17.6169 22.4201C17.4755 22.4201 17.4022 22.5039 17.4022 22.6505V23.1269C17.4022 23.2735 17.4755 23.3573 17.6169 23.3573C17.7582 23.3573 17.8315 23.2735 17.8315 23.1269V23.0052H17.6954Z" fill="#FE4200"/>
<path d="M18.0629 22.5615H18.3115V22.4306H17.9189V23.3468H18.3115V23.2159H18.0629V22.9476H18.2605V22.8167H18.0629V22.5615Z" fill="#FE4200"/>
<path d="M23.7866 2.45476V3.18206H25.2791L26.0064 2.45476H23.7866Z" fill="#FE4200"/>
<path d="M25.2792 3.18206H26.6363V2.45476H26.0065L25.2792 3.18206Z" fill="#D93800"/>
<path d="M23.367 3.18206V2.45476H21.7503L21.023 3.18206H23.367Z" fill="#D93800"/>
<path d="M20.5173 3.18206H21.0231L21.7504 2.45476H20.5173V3.18206Z" fill="#FE4200"/>
<path d="M8.09368 3.18206V2.45476H6.39595L5.66968 3.18206H8.09368Z" fill="#D93800"/>
<path d="M5.24396 3.18206H5.66967L6.39595 2.45476H5.24396V3.18206Z" fill="#FE4200"/>
<path d="M8.51318 3.18206H9.85598L10.5833 2.45476H8.51318V3.18206Z" fill="#FE4200"/>
<path d="M11.3629 3.18206V2.45476H10.5833L9.85602 3.18206H11.3629Z" fill="#D93800"/>
<path d="M17.365 2.45476H14.5153V3.18206H17.365V2.45476Z" fill="white"/>
</svg>
