<svg width="31" height="40" viewBox="0 0 31 40" fill="none" xmlns="http://www.w3.org/2000/svg">
<path d="M29.8867 30.7819C28.9127 30.8137 27.9387 30.8201 26.971 30.7819C26.4999 30.7628 26.3026 30.9601 26.1371 31.3548C25.5195 32.7872 24.8766 34.2068 24.2399 35.6265C24.1381 35.8557 24.0681 36.1167 23.8007 36.2313C23.6415 36.3013 23.3869 36.3968 23.4378 36.0848C23.6734 34.7225 23.2914 33.3983 23.215 32.0551C23.1641 31.0874 23.145 30.107 22.8649 29.0248C22.6993 29.4004 22.5593 29.6487 22.4765 29.9097C22.2792 30.5654 21.8845 30.8646 21.1715 30.7946C20.5603 30.7373 19.9428 30.8264 19.3317 30.7691C18.6759 30.7055 18.3513 30.9092 18.2812 31.6031C18.2367 32.0487 18.0584 32.4943 17.8993 32.9209C17.8293 33.1119 17.6383 33.2519 17.4027 33.1946C17.2881 33.1628 17.3263 33.0482 17.3327 32.9463C17.3645 31.7113 16.7852 30.6227 16.5624 29.2922C15.8303 30.7755 15.8303 30.7755 14.2324 30.7882C14.2069 30.7882 14.1815 30.7946 14.156 30.7882C13.6785 30.7055 13.4939 30.9283 13.3793 31.3866C13.1247 32.3988 12.7936 33.3983 12.5135 34.4042C12.4117 34.7798 12.2653 35.0599 11.8897 35.0599C11.6414 32.3416 11.1194 29.7123 10.6419 27.064C10.4382 27.7261 10.2981 28.3691 10.2026 29.0248C9.91616 31.0365 10.0117 30.7691 8.12728 30.7819C6.75856 30.7882 5.39621 30.7819 3.94473 30.7819C4.22484 31.4503 4.56225 31.9278 4.93148 32.3797C7.0705 35.0026 9.90979 36.4923 13.0992 37.3835C15.5311 38.0647 18.0584 38.3575 20.4839 39.0833C21.2224 39.3061 22.0309 39.4016 22.6166 40C23.2341 40 23.8452 40 24.4628 40C24.641 39.7836 24.9275 39.8027 25.1567 39.7263C26.6463 39.217 27.8241 38.3193 28.6007 36.9443C29.5748 35.2127 30.084 33.3156 30.4533 31.3739C30.5488 30.8901 30.3578 30.7628 29.8867 30.7819Z" fill="#D6212A"/>
<path d="M28.7217 21.9775C28.1742 21.2326 27.5249 20.6915 26.5954 20.4623C25.3604 20.1568 24.1126 19.8958 22.7948 19.3228C23.0304 20.0804 23.215 20.6852 23.406 21.2836C23.5524 21.7483 23.4505 22.1239 22.9731 22.264C22.4447 22.4167 22.2728 22.0411 22.1582 21.6019C21.8972 20.6406 21.6171 19.6857 21.1906 18.7817C20.5539 17.4384 19.72 16.2543 18.3258 15.5986C16.4796 14.7328 14.5571 14.5482 12.5708 15.0448C10.0435 15.6814 8.31189 17.4066 6.78402 19.361C4.61954 22.143 3.41634 25.2942 3.39087 28.8529C3.39087 29.2158 3.33358 29.5659 3.90653 29.5532C5.4153 29.5277 6.92407 29.5404 8.43285 29.5468C8.77662 29.5468 8.92304 29.4386 8.97397 29.0757C9.12675 28.0953 9.33683 27.1213 9.49599 26.1346C9.87795 23.8046 10.4254 21.5 10.6801 19.1318C11.0748 19.17 11.2212 19.4438 11.253 19.8003C11.3103 20.3859 11.3613 20.9716 11.4122 21.5573C11.6668 24.6131 11.9215 27.6624 12.1889 30.8009C12.9082 29.2412 12.609 29.5977 14.2133 29.5404C14.2897 29.5404 14.3724 29.5277 14.4425 29.5404C14.9836 29.6487 15.2064 29.3622 15.3783 28.8911C15.8621 27.5797 16.3905 26.2873 16.8998 24.9823C17.32 25.0714 17.3836 25.3706 17.4155 25.7271C17.5046 26.8221 17.6255 27.9171 17.7019 29.012C17.7274 29.3876 17.8038 29.5595 18.224 29.5468C19.1216 29.515 20.0128 29.5404 20.9105 29.5341C21.1078 29.5341 21.3179 29.5659 21.4452 29.3367C22.1709 27.9807 23.2214 26.8094 23.6797 25.2942C24.1763 25.4216 24.1699 25.8099 24.1699 26.2046C24.1699 28.0189 24.1699 29.8396 24.1699 31.654C24.1699 31.915 24.1699 32.1696 24.1699 32.4307C24.6665 31.6986 25.0293 30.9665 25.3285 30.2089C25.5323 29.6996 25.8569 29.5213 26.3853 29.5341C27.6395 29.5595 28.8936 29.5277 30.1477 29.5532C30.4851 29.5595 30.6634 29.5468 30.6761 29.1394C30.7461 26.5611 30.3005 24.1229 28.7217 21.9775Z" fill="#D6212A"/>
<path d="M4.70865 12.5365C6.58029 12.4983 8.28642 13.0458 9.76972 14.2108C10.0498 14.4273 10.2663 14.5864 10.6482 14.3891C11.0748 14.1663 10.8456 13.8607 10.8265 13.5933C10.6164 10.563 10.7628 7.67917 13.6785 5.78206C14.2387 5.4192 14.2833 4.78258 14.1687 4.18417C14.0096 3.38204 13.6276 2.67539 13.0674 1.96239C12.7045 2.72632 12.5899 3.47116 11.896 4.03138C10.9411 4.80805 10.1135 5.78207 9.38139 6.80701C9.14584 7.13805 8.82754 7.25901 8.45193 7.01073C8.15273 6.80701 8.03177 6.46961 8.26095 6.22133C8.71295 5.73114 8.59199 5.21548 8.52833 4.64889C8.42647 3.73854 8.32461 2.80908 8.38191 1.89873C8.42647 1.12206 8.13999 0.829218 7.42699 0.81012C7.06412 0.81012 6.70125 0.81012 6.34475 0.81012C5.358 1.10933 5.06515 1.52949 5.16701 2.63083C5.24341 3.39477 5.3198 4.16507 5.14791 4.91627C4.63862 7.18261 4.25029 9.46805 4.08477 11.7853C4.04021 12.3137 4.05294 12.5493 4.70865 12.5365Z" fill="#D6212A"/>
<path d="M14.9454 2.70085C15.8494 4.61069 15.6648 6.37411 13.7295 7.53911C12.8509 8.0675 12.3607 8.89509 12.2016 9.90731C12.0233 11.0468 11.9661 12.1864 12.1316 13.3387C12.1825 13.7143 12.2653 13.8734 12.6854 13.7524C13.3539 13.5678 14.0414 13.536 14.7353 13.536C15.1427 13.5551 15.5502 13.5678 15.9576 13.5997C16.1868 13.6188 16.3714 13.5742 16.4351 13.3323C16.8043 11.9636 17.9056 11.3015 19.0325 10.6776C19.3126 10.5248 19.5354 10.3657 19.6691 10.0601C20.3439 8.48766 20.1529 6.80064 18.8733 5.69293C17.9375 4.88443 17.721 3.90405 17.5555 2.82181C17.5046 2.49077 17.4282 2.1661 17.4155 1.83506C17.4027 1.54222 17.2818 1.44673 17.0017 1.42126C16.3841 1.37033 15.7348 1.49129 15.1937 1.01383C15.0536 0.892873 14.748 0.943802 14.5189 0.937436C14.1369 0.924704 14.086 1.07749 14.2706 1.40216C14.5252 1.82869 14.7417 2.26159 14.9454 2.70085Z" fill="#D6212A"/>
<path d="M17.8547 13.3387C17.581 13.7397 17.6192 14.0517 18.1539 14.2872C19.3253 14.7901 20.2993 15.5986 21.0696 16.6045C21.4961 17.1583 22.0118 17.5085 22.6293 17.7822C24.3163 18.527 26.1498 18.8326 27.8686 19.4947C28.1615 19.6093 28.6962 19.5711 28.7344 19.1828C28.7854 18.6098 28.6835 17.9987 28.5116 17.4512C28.3716 17.0119 27.8241 17.4575 27.5058 17.2093C28.3143 16.6172 28.3334 16.4835 27.7477 15.1084C26.9201 15.5986 26.0288 15.8851 25.0612 15.8724C24.6283 15.866 24.3673 15.6305 24.3545 15.223C24.3418 14.8538 24.6028 14.6119 24.972 14.561C25.3031 14.5164 25.6405 14.5291 25.9652 14.4591C26.1943 14.4145 26.4363 14.37 26.4745 14.0071C26.5954 12.9376 25.9652 11.9636 24.9275 11.6898C24.7365 11.6389 24.4755 11.6516 24.3864 11.4479C24.0872 10.7731 23.4824 10.8559 23.0113 11.015C22.311 11.2442 21.5916 11.1869 20.8977 11.327C19.6309 11.5816 18.5932 12.2564 17.8547 13.3387Z" fill="#D6212A"/>
<path d="M8.6684 15.4777C9.05673 15.1976 8.78298 15.0957 8.5729 14.9493C7.17872 13.9816 5.62539 13.7524 3.97019 13.8734C3.07257 13.9434 2.40413 14.2745 1.83118 15.0002C-0.734374 18.2851 -0.0722978 23.2825 2.26407 26.5293C3.15533 22.0666 4.92511 18.196 8.6684 15.4777Z" fill="#D6212A"/>
<path d="M11.6923 1.93057C11.8451 1.5677 11.9279 1.20483 11.7051 0.835596C11.2467 0.82923 10.7883 0.822864 10.33 0.816498C10.0562 0.841962 9.70609 0.816498 9.69336 1.20483C9.66789 2.21068 9.68699 3.21653 9.68699 4.43246C10.661 3.5985 11.2976 2.86639 11.6923 1.93057Z" fill="#D6212A"/>
</svg>
