<svg width="28" height="28" viewBox="0 0 28 28" fill="none" xmlns="http://www.w3.org/2000/svg">
<path d="M20.1612 10.9224L18.6305 11.5237C17.7996 9.41357 15.7988 8.04692 13.5356 8.04692C10.5181 8.04692 8.06901 10.5069 8.06901 13.5135C8.06901 14.0821 8.15647 14.6397 8.32047 15.1645L7.70821 17.5916C6.86635 16.3999 6.41809 14.9895 6.41809 13.5026C6.41809 9.57757 9.61059 6.38507 13.5356 6.38507C16.4876 6.40694 19.0897 8.17812 20.1612 10.9224Z" fill="#F94E63"/>
<path d="M23.7686 13.5245C23.7686 16.5202 22.4348 19.3519 20.2044 21.2761L19.7452 19.4393C21.243 17.8649 22.1177 15.7439 22.1177 13.5135C22.1177 8.77944 18.2692 4.93094 13.5351 4.93094C10.7362 4.93094 8.11225 6.29759 6.50506 8.59357L5.16028 7.65331C7.07359 4.92 10.2114 3.29095 13.5461 3.29095C19.1767 3.30189 23.7686 7.88291 23.7686 13.5245Z" fill="#035778"/>
<path d="M1.84771 20.3577C0.64506 18.2913 0 15.9297 0 13.5353C0 6.06794 6.06794 0 13.5353 0C21.0027 0 27.0707 6.06794 27.0707 13.5353C27.0707 14.0711 27.0379 14.6177 26.9723 15.1535L25.3323 14.9567C25.3869 14.4865 25.4198 14.0055 25.4198 13.5353C25.4198 6.9754 20.0843 1.65092 13.5353 1.65092C6.9754 1.65092 1.65092 6.98633 1.65092 13.5353C1.65092 15.6454 2.20851 17.7228 3.26903 19.5267L1.84771 20.3577Z" fill="#F94E63"/>
<path d="M20.4888 28.0001H6.50525L10.2335 13.2075H16.7497L20.4888 28.0001Z" fill="#035778"/>
</svg>
