<svg width="29" height="28" viewBox="0 0 29 28" fill="none" xmlns="http://www.w3.org/2000/svg">
<path d="M18.2442 21.7704C18.2442 21.8295 18.2443 21.9005 18.2324 21.9596C18.1379 24.4183 17.9606 26.6997 17.8778 27.7635C17.8778 27.7872 17.8778 27.8108 17.866 27.8345C17.866 27.8818 17.8542 27.929 17.8542 27.9763H8.90588C8.94135 27.6926 9.04773 26.7115 9.21322 25.3876C9.24868 25.0802 9.29597 24.7493 9.33143 24.4065C9.35507 24.17 9.39053 23.9218 9.42599 23.6618C9.43782 23.5672 9.44964 23.4608 9.46146 23.3662C9.47328 23.2835 9.4851 23.2008 9.49692 23.1062C9.49692 23.0707 9.50874 23.0471 9.50874 23.0234C9.73333 21.3094 10.0052 19.4063 10.2771 17.7278C10.2889 17.6805 10.2889 17.6214 10.3007 17.5741C10.3007 17.5504 10.3125 17.5268 10.3125 17.5032C10.3125 17.4913 10.3125 17.4795 10.3244 17.4677C10.3362 17.4204 10.3362 17.3731 10.348 17.3259C10.5135 16.3684 10.679 15.5055 10.8445 14.8199C10.9272 14.4416 11.0218 14.1224 11.1045 13.8624C11.1755 13.6378 11.2582 13.4605 11.3291 13.3423C11.341 13.3305 11.3764 13.3305 11.4473 13.3541C11.9556 13.4841 14.0597 14.2525 16.4357 12.9877C16.5066 12.9404 16.5893 12.9049 16.6721 12.8576C16.7194 12.834 16.7667 12.8103 16.8021 12.7867C17.0622 12.6803 17.2868 12.7631 17.4759 12.9995C17.736 13.3305 17.9251 13.9688 18.0551 14.7962C18.0669 14.8435 18.0669 14.879 18.0788 14.9262C18.0906 14.9854 18.0906 15.0563 18.1024 15.1154C18.1142 15.1863 18.126 15.2691 18.126 15.34C18.327 17.1013 18.327 19.5009 18.2442 21.7704Z" fill="#5DCEC1"/>
<path d="M28.339 26.8652C28.339 26.9243 28.339 26.9834 28.339 27.0425C28.339 27.409 28.3036 27.7163 28.2445 27.9882H16.8138C16.802 27.2908 16.802 26.5815 16.802 25.8605C16.7902 24.5129 16.7784 23.1653 16.7547 21.9005C16.7074 17.7633 16.6602 14.4535 16.6602 14.4535L16.7902 14.217L17.464 13.0113L17.5112 12.9286C17.5112 12.9286 17.8186 13.0468 18.3032 13.2359C18.3269 13.2477 18.3623 13.2596 18.386 13.2714C18.3978 13.2832 18.4214 13.2832 18.4333 13.295C18.5397 13.3423 18.6579 13.3778 18.7761 13.4251C20.3955 14.0752 23.0906 15.2218 23.8708 15.8838C24.3791 16.3211 25.3247 18.307 26.2231 20.482C26.2231 20.4938 26.2349 20.4938 26.2349 20.5057C26.2822 20.6239 26.3295 20.7421 26.3768 20.8603C27.0978 22.6452 27.7598 24.5129 28.1026 25.7186C28.2563 26.2505 28.339 26.6524 28.339 26.8652Z" fill="#F5FFFF"/>
<path d="M10.8445 13.094V27.9881H0.0167043C0.00488353 27.7754 0.00488281 27.5626 0.00488281 27.3498C0.00488281 27.3262 0.00488353 27.2907 0.0167043 27.2671V27.2552C0.0639871 26.8415 0.312222 25.955 0.666844 24.8556C1.69525 21.6995 3.65748 16.7703 4.48493 16.061C5.19418 15.4463 7.49922 14.4534 9.13048 13.7796C9.1423 13.7796 9.15412 13.7678 9.16594 13.7678C10.1234 13.3659 10.8445 13.094 10.8445 13.094Z" fill="#F5FFFF"/>
<path d="M21.8731 25.4349L20.7029 26.1323C20.6792 26.1441 20.6438 26.1441 20.6201 26.1323L19.3908 25.4349C19.3671 25.423 19.3435 25.3876 19.3435 25.3639V22.7634C19.3435 22.7161 19.379 22.6806 19.4262 22.6806H21.8259C21.8731 22.6806 21.9086 22.7161 21.9086 22.7634V25.3521C21.9086 25.3876 21.8968 25.4112 21.8731 25.4349Z" fill="#F5FFFF"/>
<path d="M21.8731 25.4349L20.7029 26.1323C20.6792 26.1442 20.6438 26.1442 20.6201 26.1323L19.3908 25.4349C19.3671 25.4231 19.3435 25.3876 19.3435 25.364V23.2954C19.3435 23.2481 19.379 23.2126 19.4262 23.2126H21.8259C21.8731 23.2126 21.9086 23.2481 21.9086 23.2954V25.364C21.9086 25.3876 21.8968 25.4113 21.8731 25.4349Z" fill="#F5FFFF"/>
<g opacity="0.5">
<g opacity="0.5">
<path opacity="0.5" d="M20.23 17.2668L19.9463 18.9454L19.9345 18.9808L19.9227 19.0163L19.6154 20.813L19.6035 20.8485L19.5917 20.884L19.4262 21.8414L19.4026 22.0069L19.3553 22.2552L19.3435 22.3024L18.4333 27.6809L18.1259 27.7282L17.8541 27.7754L17.1803 27.8818L17.2157 28H16.7784V11.4747C16.7784 11.4747 16.802 11.5101 16.8493 11.5811C16.9675 11.7465 17.2394 12.113 17.8068 12.6922C17.9723 12.8577 18.1378 13.0468 18.2914 13.236C18.386 13.3423 18.4806 13.4606 18.5633 13.5788C19.2016 14.418 19.6745 15.2455 19.6745 15.2455L18.0668 14.9381L17.8659 14.9027L18.0905 15.1273L20.23 17.2668Z" fill="#8FA7D7"/>
</g>
</g>
<g opacity="0.5">
<path opacity="0.5" d="M11.3055 27.9882H9.70966L9.21319 25.3995L8.85857 23.5673L8.81128 23.3427V23.3308L8.78764 23.2008L8.77582 23.1654L8.74036 22.9999L8.51577 21.8533L8.33845 20.9076L8.29117 20.6712L8.26753 20.5648L8.22025 20.3402L8.12568 19.8556L7.62921 17.2668L9.82787 15.0563L9.99335 14.8909L9.83968 14.9263L8.18478 15.2455C8.18478 15.2455 8.57487 14.5599 9.13044 13.7915C9.1659 13.7442 9.18955 13.7088 9.22501 13.6615C9.47324 13.3305 9.75694 12.9877 10.0525 12.6922C10.6199 12.113 10.9036 11.7465 11.0099 11.5811C11.0572 11.5101 11.0809 11.4747 11.0809 11.4747V11.522L11.1163 13.8861L11.1754 18.2598V18.4962V18.7444V18.9335L11.1872 19.3591V19.4182L11.2345 22.858V23.0708V23.2008V23.2126V23.2836V23.6027L11.3055 27.9882Z" fill="#8FA7D7"/>
</g>
<path d="M19.8282 17.0658L19.4854 19.2645L19.4736 19.3236L19.4617 19.3945L19.3081 20.3401L19.2962 20.3992L19.2844 20.4583L19.0716 21.8177L19.048 21.9832L18.1496 27.7163L18.1378 27.7754L17.8659 27.8345L17.2749 27.9763V27.9881H16.672L16.5775 21.8887L16.4356 12.9995L16.412 11.2737C16.412 11.2737 16.542 11.3328 16.8021 11.5337C16.8257 11.5455 16.8494 11.5692 16.873 11.5928C17.0621 11.7465 17.3104 11.9593 17.6177 12.2666C17.8423 12.4912 18.0551 12.7631 18.2324 13.0349C18.2442 13.0586 18.2678 13.0822 18.2797 13.1059C18.3151 13.1531 18.3506 13.2122 18.386 13.2714C18.457 13.3777 18.5161 13.4723 18.5752 13.5787C19.0244 14.347 19.2844 15.0445 19.2844 15.0445L18.0432 14.808L17.464 14.7017L18.1142 15.3518L19.8282 17.0658Z" fill="#F5FFFF"/>
<path d="M11.4354 11.2737V27.9881H9.98149L9.34317 24.4183L9.20132 23.6027L9.16586 23.4372L9.14222 23.2835L9.08311 22.9762L8.6221 20.4229L8.49208 19.6782L8.45661 19.4654L8.44479 19.4181L8.40933 19.2172L8.35023 18.8744L8.03107 17.0776L9.85146 15.2454L10.0761 15.0208L10.3834 14.7135L10.0879 14.7726L9.86328 14.8199L8.57482 15.0681C8.57482 15.0681 8.79941 14.4771 9.17768 13.7915C9.20132 13.756 9.22496 13.7087 9.2486 13.6733C9.52048 13.2004 9.86328 12.6803 10.2534 12.2902C10.5725 11.9593 10.8326 11.7465 11.0217 11.5928C11.0453 11.581 11.069 11.5573 11.0926 11.5455C11.3172 11.3209 11.4354 11.2737 11.4354 11.2737Z" fill="#F5FFFF"/>
<path d="M13.906 15.6474C12.4756 15.6474 11.4472 15.1509 11.4354 15.1391V14.9618C11.4591 14.9736 13.9887 16.1793 16.4592 14.8554V15.0209C15.5609 15.5173 14.6979 15.6474 13.906 15.6474Z" fill="#38A595"/>
<path opacity="0.5" d="M4.15391 27.9882H3.72836C3.1255 27.6927 2.51083 27.409 2.30988 27.3499C2.39262 27.3735 3.30282 27.5508 4.15391 27.9882Z" fill="#8FA7D7"/>
<path opacity="0.5" d="M5.07588 27.9882H4.87493L4.43756 27.4917L4.54395 27.3617C4.57941 27.3971 4.83946 27.6572 5.07588 27.9882Z" fill="#8FA7D7"/>
<path opacity="0.5" d="M6.55348 20.8012C6.6244 22.0187 6.45891 25.9196 6.36435 27.9882H5.91516C6.18704 25.565 6.54166 20.9076 6.55348 20.8012Z" fill="#8FA7D7"/>
<path opacity="0.5" d="M25.3366 25.2576C25.3366 25.2576 22.275 26.9716 20.6319 27.4208C19.7809 27.6454 19.0007 27.8463 18.4569 28H18.1496C19.0007 27.6454 20.8093 26.9007 22.5114 26.2623V26.2505L22.3578 22.1369L22.2868 20.352L22.5114 22.1487L22.6415 23.2599L22.9843 26.085C23.8708 25.7304 24.7101 25.4349 25.3366 25.2576Z" fill="#8FA7D7"/>
<path opacity="0.1" d="M28.2681 27.9882H27.5353C27.6417 27.7045 27.7126 27.3853 27.7126 27.0425C27.7008 24.5956 26.365 20.8839 26.235 20.5175C26.2823 20.6357 26.3296 20.7539 26.3768 20.8721C27.0861 22.6097 27.748 24.3001 28.1027 25.7304C28.2209 26.2032 28.3036 26.6406 28.3391 27.0543C28.3391 27.0543 28.3391 27.0543 28.3391 27.0661C28.3745 27.4208 28.3391 27.7399 28.2681 27.9882Z" fill="#8FA7D7"/>
<path opacity="0.1" d="M0.501366 27.3499C0.501366 27.5626 0.513186 27.7754 0.525007 27.9882H0.00489615C-0.00692456 27.7636 0.00489687 27.5626 0.0167176 27.3499C0.0167176 27.3262 0.0167165 27.2908 0.0285372 27.2671V27.2553C0.0639994 26.7707 0.146744 26.3451 0.678677 24.8557C1.05694 23.8037 1.6598 22.2079 2.62909 19.6782C2.01442 21.3095 0.489545 25.5768 0.501366 27.3499Z" fill="#8FA7D7"/>
<path d="M22.6651 22.137L22.6415 23.2363L22.5824 26.2033C22.5587 26.2151 22.5233 26.2269 22.4996 26.2388C20.9748 26.8298 19.1544 27.539 18.1142 27.9882H13.3859L13.4804 21.7705L16.5538 21.9006L16.7429 21.9124H16.7902L17.0857 21.9242L18.2324 21.9715L19.048 22.007L19.3908 22.0188H19.4144L19.5799 22.0306L22.3578 22.137L22.5115 22.1488L22.6651 22.137Z" fill="#AE376D"/>
<path d="M19.5799 22.0188V21.8533L17.0976 21.7115L17.0858 21.9124L19.5799 22.0188Z" fill="#A1B5BF"/>
<path d="M17.4168 22.1842C17.4168 22.2078 17.3932 22.2315 17.3695 22.2315C17.3459 22.2315 17.3223 22.2078 17.3223 22.1842C17.3223 22.1605 17.3459 22.1369 17.3695 22.1369C17.3932 22.1369 17.4168 22.1605 17.4168 22.1842Z" fill="#A1B5BF"/>
<path d="M19.3791 22.2669C19.3791 22.2788 19.3673 22.3024 19.3436 22.3024C19.3318 22.3024 19.3082 22.2906 19.3082 22.2669C19.3082 22.2551 19.32 22.2315 19.3436 22.2315C19.3673 22.2433 19.3791 22.2551 19.3791 22.2669Z" fill="#A1B5BF"/>
<path d="M17.9251 8.01115C17.665 8.9568 17.204 9.67787 17.0031 9.61876C17.0031 9.61876 17.1449 9.01591 17.334 8.05843C17.5468 6.94728 17.5823 6.16712 18.0433 6.20258C18.2442 6.22622 18.1851 7.06549 17.9251 8.01115Z" fill="#F0BA92"/>
<g opacity="0.6">
<g opacity="0.6">
<path opacity="0.6" d="M17.5822 7.62105C17.3458 8.56671 17.204 9.67786 17.0148 9.61876C17.0148 9.61876 17.2158 8.76766 17.4049 7.81019C17.6177 6.69904 17.6059 6.30895 18.0551 6.35624C18.0432 6.34442 17.8659 6.46262 17.5822 7.62105Z" fill="#D88D64"/>
</g>
</g>
<path d="M9.94615 8.01117C10.2062 8.95682 10.6436 9.67789 10.8445 9.61879C10.8445 9.61879 10.6318 8.83862 10.5017 8.02299C10.3244 6.90002 10.289 6.15532 9.83977 6.2026C9.62699 6.22624 9.6861 7.06551 9.94615 8.01117Z" fill="#F0BA92"/>
<g opacity="0.6">
<g opacity="0.6">
<path opacity="0.6" d="M10.1589 7.5147C10.3953 8.46036 10.6435 9.67789 10.8445 9.61879C10.8445 9.61879 10.6317 8.63767 10.4426 7.68019C10.2298 6.56904 10.2653 6.30899 9.80426 6.34445C9.80426 6.35627 9.86336 6.36809 10.1589 7.5147Z" fill="#D88D64"/>
</g>
</g>
<path d="M16.4356 13.4841C16.4356 13.4841 16.0928 14.3943 13.9178 14.3943C11.7428 14.3943 11.4354 13.5432 11.4354 13.5432V10.7772H16.4001L16.4356 13.4841Z" fill="#F0BA92"/>
<g opacity="0.6">
<g opacity="0.6">
<path opacity="0.6" d="M16.412 11.4746C15.9628 12.4085 14.2134 13.1414 13.9297 13.1414C13.646 13.1414 12.1566 12.574 11.4473 11.4865V10.0443H16.412V11.4746Z" fill="#D88D64"/>
</g>
</g>
<path d="M17.003 9.61884C16.1756 12.3376 13.9178 12.3849 13.9178 12.3849C13.9178 12.3849 11.5301 12.3731 10.8208 9.55974C10.348 7.69206 9.21319 4.84327 10.5726 2.72736C11.3409 1.53347 16.9203 1.04882 17.5823 2.72736C18.2442 4.39408 17.4877 8.02304 17.003 9.61884Z" fill="#FFCCA9"/>
<path d="M15.1354 9.51233C15.2299 9.58326 14.9462 10.5762 13.9178 10.588C13.0549 10.5998 12.6175 9.70146 12.7003 9.57143C12.7949 9.40594 13.1377 9.51233 13.8942 9.51233C14.6271 9.51233 15.0408 9.42959 15.1354 9.51233Z" fill="#F5FFFF"/>
<path d="M13.906 10.6354C13.3505 10.6354 12.9486 10.269 12.7476 9.93801C12.6649 9.80798 12.6058 9.63067 12.653 9.54792C12.7358 9.41789 12.9131 9.42972 13.2559 9.44154C13.4214 9.45336 13.6342 9.46518 13.8824 9.46518C14.1897 9.46518 14.4261 9.45336 14.6271 9.44154C14.9344 9.42972 15.0881 9.4179 15.159 9.477C15.23 9.5361 15.1709 9.71341 15.1472 9.78434C15.0999 9.92618 14.8044 10.6236 13.9179 10.6354C13.9179 10.6354 13.9179 10.6354 13.906 10.6354ZM12.9722 9.5361C12.854 9.5361 12.7713 9.54792 12.7476 9.60703C12.7358 9.63067 12.7594 9.7607 12.8776 9.94983C12.9722 10.0917 13.315 10.5527 13.9179 10.5527H13.9297C14.5207 10.5409 14.8281 10.1981 14.9581 9.99711C15.0881 9.79616 15.1236 9.60703 15.1118 9.57156C15.0645 9.5361 14.8753 9.54792 14.6507 9.55974C14.4498 9.57156 14.2134 9.58338 13.906 9.58338C13.646 9.58338 13.4332 9.57156 13.2677 9.55974C13.1377 9.5361 13.0431 9.5361 12.9722 9.5361Z" fill="#D3976E"/>
<path d="M13.9297 8.68495C13.8115 8.60221 13.6223 8.40126 13.7287 8.0821C13.8233 7.81022 13.8351 7.27829 13.8351 7.27829H13.9415C13.9415 7.30193 13.9297 7.82204 13.8351 8.11756C13.7524 8.3658 13.8824 8.51946 14.0006 8.60221L13.9297 8.68495Z" fill="#D88D64"/>
<path d="M11.6602 22.2315C11.601 19.3709 11.1755 17.1959 9.8043 17.1959C8.40945 17.1959 7.99573 19.4418 7.96027 22.3733V22.527C7.96027 23.0944 8.26761 23.2362 8.64587 23.2954C8.78772 23.319 8.92956 23.3308 9.07141 23.3308C9.10687 23.4136 9.18962 23.4727 9.28419 23.4727C9.41421 23.4727 9.5206 23.3663 9.5206 23.2362V23.0471C9.5206 22.9171 9.41421 22.8107 9.28419 22.8107C9.16598 22.8107 9.07141 22.8934 9.05959 23.0117C8.75225 22.9998 8.37399 22.9289 8.24396 22.7043C8.12576 22.4797 8.19668 22.0069 8.2085 21.6877C8.29125 19.2527 8.68133 17.4205 9.81612 17.4205C10.9391 17.4205 11.341 19.2408 11.4237 21.6759C11.4356 21.9833 11.4828 22.4324 11.3765 22.657C11.2701 22.858 10.9982 22.9525 10.7145 22.988C10.679 22.8816 10.5845 22.7989 10.4663 22.8225C10.3362 22.8343 10.2535 22.9526 10.2653 23.0826L10.2889 23.2717C10.3008 23.4017 10.419 23.4845 10.549 23.4727C10.6436 23.4608 10.7263 23.3899 10.75 23.3072C11.1873 23.2481 11.6956 23.0471 11.672 22.4679V22.2315C11.6601 22.2433 11.6602 22.2433 11.6602 22.2315Z" fill="#383F47"/>
<path d="M9.83971 17.314H9.61511V14.8435L9.83971 14.7962V17.314Z" fill="#383F47"/>
<path d="M20.1947 19.0281C20.0764 15.8128 19.048 14.1579 18.3861 13.2478C17.7596 12.3848 17.6177 12.2666 17.6177 12.2666C17.7241 12.3139 20.2538 13.5551 20.4547 19.0163L20.1947 19.0281Z" fill="#383F47"/>
<path d="M20.3365 19.0872C20.1592 15.7419 19.3672 14.2762 18.7052 13.366C18.0787 12.503 17.6177 12.2666 17.6177 12.2666C17.7241 12.3139 20.2538 13.6497 20.4547 19.1226L20.3365 19.0872Z" fill="#1A2026"/>
<path d="M21.4458 20.0083C21.4458 20.623 20.9493 21.1195 20.3347 21.1195C19.72 21.1195 19.2235 20.623 19.2235 20.0083C19.2235 19.3937 19.72 18.8972 20.3347 18.8972C20.9493 18.909 21.4458 19.3937 21.4458 20.0083Z" fill="#F5FFFF"/>
<path d="M20.7147 18.969C20.7028 18.969 20.691 18.9572 20.6792 18.9572C20.6674 18.9572 20.6555 18.9453 20.6319 18.9453C20.6201 18.9453 20.6201 18.9453 20.6083 18.9335C20.5964 18.9335 20.5846 18.9217 20.5728 18.9217C20.561 18.9217 20.5492 18.9217 20.5373 18.9099H20.5255H20.5137C20.5019 18.9099 20.4782 18.9099 20.4664 18.8981H20.4546H20.4428H20.431C20.3955 18.8981 20.3719 18.8981 20.3364 18.8981C20.3009 18.8981 20.2655 18.8981 20.2182 18.9099C20.1945 18.9099 20.1709 18.9099 20.1473 18.9217H20.1354H20.1236H20.1118H20.1C20.0645 18.9335 20.0409 18.9335 20.0054 18.9453C19.9818 18.9572 19.9463 18.969 19.9227 18.969L19.9108 19.0044C20.0409 18.9572 20.1827 18.9217 20.3246 18.9217C20.4546 18.9217 20.5846 18.9453 20.7028 18.9926C20.7147 18.9926 20.7147 18.9808 20.7147 18.969ZM20.7147 18.969C20.7028 18.969 20.691 18.9572 20.6792 18.9572C20.6674 18.9572 20.6555 18.9453 20.6319 18.9453C20.6201 18.9453 20.6201 18.9453 20.6083 18.9335C20.5964 18.9335 20.5846 18.9217 20.5728 18.9217C20.561 18.9217 20.5492 18.9217 20.5373 18.9099H20.5255H20.5137C20.5019 18.9099 20.4782 18.9099 20.4664 18.8981H20.4546H20.4428H20.431C20.3955 18.8981 20.3719 18.8981 20.3364 18.8981C20.3009 18.8981 20.2655 18.8981 20.2182 18.9099C20.1945 18.9099 20.1709 18.9099 20.1473 18.9217H20.1354H20.1236H20.1118H20.1C20.0645 18.9335 20.0409 18.9335 20.0054 18.9453C19.9818 18.9572 19.9463 18.969 19.9227 18.969L19.9108 19.0044C20.0409 18.9572 20.1827 18.9217 20.3246 18.9217C20.4546 18.9217 20.5846 18.9453 20.7028 18.9926C20.7147 18.9926 20.7147 18.9808 20.7147 18.969ZM20.7147 18.969C20.7028 18.969 20.691 18.9572 20.6792 18.9572C20.6674 18.9572 20.6555 18.9453 20.6319 18.9453C20.6201 18.9453 20.6201 18.9453 20.6083 18.9335C20.5964 18.9335 20.5846 18.9217 20.5728 18.9217C20.561 18.9217 20.5492 18.9217 20.5373 18.9099H20.5255H20.5137C20.5019 18.9099 20.4782 18.9099 20.4664 18.8981H20.4546H20.4428H20.431C20.3955 18.8981 20.3719 18.8981 20.3364 18.8981C20.3009 18.8981 20.2655 18.8981 20.2182 18.9099C20.1945 18.9099 20.1709 18.9099 20.1473 18.9217H20.1354H20.1236H20.1118H20.1C20.0645 18.9335 20.0409 18.9335 20.0054 18.9453C19.9818 18.9572 19.9463 18.969 19.9227 18.969L19.9108 19.0044C20.0409 18.9572 20.1827 18.9217 20.3246 18.9217C20.4546 18.9217 20.5846 18.9453 20.7028 18.9926C20.7147 18.9926 20.7147 18.9808 20.7147 18.969ZM20.7147 18.969C20.7028 18.969 20.691 18.9572 20.6792 18.9572C20.6674 18.9572 20.6555 18.9453 20.6319 18.9453C20.6201 18.9453 20.6201 18.9453 20.6083 18.9335C20.5964 18.9335 20.5846 18.9217 20.5728 18.9217C20.561 18.9217 20.5492 18.9217 20.5373 18.9099H20.5255H20.5137C20.5019 18.9099 20.4782 18.9099 20.4664 18.8981H20.4546H20.4428H20.431C20.3955 18.8981 20.3719 18.8981 20.3364 18.8981C20.3009 18.8981 20.2655 18.8981 20.2182 18.9099C20.1945 18.9099 20.1709 18.9099 20.1473 18.9217H20.1354H20.1236H20.1118H20.1C20.0645 18.9335 20.0409 18.9335 20.0054 18.9453C19.9818 18.9572 19.9463 18.969 19.9227 18.969L19.9108 19.0044C20.0409 18.9572 20.1827 18.9217 20.3246 18.9217C20.4546 18.9217 20.5846 18.9453 20.7028 18.9926C20.7147 18.9926 20.7147 18.9808 20.7147 18.969ZM20.7147 18.969C20.7028 18.969 20.691 18.9572 20.6792 18.9572C20.6674 18.9572 20.6555 18.9453 20.6319 18.9453C20.6201 18.9453 20.6201 18.9453 20.6083 18.9335C20.5964 18.9335 20.5846 18.9217 20.5728 18.9217C20.561 18.9217 20.5492 18.9217 20.5373 18.9099H20.5255H20.5137C20.5019 18.9099 20.4782 18.9099 20.4664 18.8981H20.4546H20.4428H20.431C20.3955 18.8981 20.3719 18.8981 20.3364 18.8981C20.3009 18.8981 20.2655 18.8981 20.2182 18.9099C20.1945 18.9099 20.1709 18.9099 20.1473 18.9217H20.1354H20.1236H20.1118H20.1C20.0645 18.9335 20.0409 18.9335 20.0054 18.9453C19.9818 18.9572 19.9463 18.969 19.9227 18.969L19.9108 19.0044C20.0409 18.9572 20.1827 18.9217 20.3246 18.9217C20.4546 18.9217 20.5846 18.9453 20.7028 18.9926C20.7147 18.9926 20.7147 18.9808 20.7147 18.969ZM20.7147 18.969C20.7028 18.969 20.691 18.9572 20.6792 18.9572C20.6674 18.9572 20.6555 18.9453 20.6319 18.9453C20.6201 18.9453 20.6201 18.9453 20.6083 18.9335C20.5964 18.9335 20.5846 18.9217 20.5728 18.9217C20.561 18.9217 20.5492 18.9217 20.5373 18.9099H20.5255H20.5137C20.5019 18.9099 20.4782 18.9099 20.4664 18.8981H20.4546H20.4428H20.431C20.3955 18.8981 20.3719 18.8981 20.3364 18.8981C20.3009 18.8981 20.2655 18.8981 20.2182 18.9099C20.1945 18.9099 20.1709 18.9099 20.1473 18.9217H20.1354H20.1236H20.1118H20.1C20.0645 18.9335 20.0409 18.9335 20.0054 18.9453C19.9818 18.9572 19.9463 18.969 19.9227 18.969L19.9108 19.0044C20.0409 18.9572 20.1827 18.9217 20.3246 18.9217C20.4546 18.9217 20.5846 18.9453 20.7028 18.9926C20.7147 18.9926 20.7147 18.9808 20.7147 18.969ZM20.7147 18.969C20.7028 18.969 20.691 18.9572 20.6792 18.9572C20.6674 18.9572 20.6555 18.9453 20.6319 18.9453C20.6201 18.9453 20.6201 18.9453 20.6083 18.9335C20.5964 18.9335 20.5846 18.9217 20.5728 18.9217C20.561 18.9217 20.5492 18.9217 20.5373 18.9099H20.5255H20.5137C20.5019 18.9099 20.4782 18.9099 20.4664 18.8981H20.4546H20.4428H20.431C20.3955 18.8981 20.3719 18.8981 20.3364 18.8981C20.3009 18.8981 20.2655 18.8981 20.2182 18.9099C20.1945 18.9099 20.1709 18.9099 20.1473 18.9217H20.1354H20.1236H20.1118H20.1C20.0645 18.9335 20.0409 18.9335 20.0054 18.9453C19.9818 18.9572 19.9463 18.969 19.9227 18.969L19.9108 19.0044C20.0409 18.9572 20.1827 18.9217 20.3246 18.9217C20.4546 18.9217 20.5846 18.9453 20.7028 18.9926C20.7147 18.9926 20.7147 18.9808 20.7147 18.969ZM20.7147 18.969C20.7028 18.969 20.691 18.9572 20.6792 18.9572C20.6674 18.9572 20.6555 18.9453 20.6319 18.9453C20.6201 18.9453 20.6201 18.9453 20.6083 18.9335C20.5964 18.9335 20.5846 18.9217 20.5728 18.9217C20.561 18.9217 20.5492 18.9217 20.5373 18.9099H20.5255H20.5137C20.5019 18.9099 20.4782 18.9099 20.4664 18.8981H20.4546H20.4428H20.431C20.3955 18.8981 20.3719 18.8981 20.3364 18.8981C20.3009 18.8981 20.2655 18.8981 20.2182 18.9099C20.1945 18.9099 20.1709 18.9099 20.1473 18.9217H20.1354H20.1236H20.1118H20.1C20.0645 18.9335 20.0409 18.9335 20.0054 18.9453C19.9818 18.9572 19.9463 18.969 19.9227 18.969L19.9108 19.0044C20.0409 18.9572 20.1827 18.9217 20.3246 18.9217C20.4546 18.9217 20.5846 18.9453 20.7028 18.9926C20.7147 18.9926 20.7147 18.9808 20.7147 18.969ZM20.7147 18.969C20.7028 18.969 20.691 18.9572 20.6792 18.9572C20.6674 18.9572 20.6555 18.9453 20.6319 18.9453C20.6201 18.9453 20.6201 18.9453 20.6083 18.9335C20.5964 18.9335 20.5846 18.9217 20.5728 18.9217C20.561 18.9217 20.5492 18.9217 20.5373 18.9099H20.5255H20.5137C20.5019 18.9099 20.4782 18.9099 20.4664 18.8981H20.4546H20.4428H20.431C20.3955 18.8981 20.3719 18.8981 20.3364 18.8981C20.3009 18.8981 20.2655 18.8981 20.2182 18.9099C20.1945 18.9099 20.1709 18.9099 20.1473 18.9217H20.1354H20.1236H20.1118H20.1C20.0645 18.9335 20.0409 18.9335 20.0054 18.9453C19.9818 18.9572 19.9463 18.969 19.9227 18.969L19.9108 19.0044C20.0409 18.9572 20.1827 18.9217 20.3246 18.9217C20.4546 18.9217 20.5846 18.9453 20.7028 18.9926C20.7147 18.9926 20.7147 18.9808 20.7147 18.969ZM20.7147 18.969C20.7028 18.969 20.691 18.9572 20.6792 18.9572C20.6674 18.9572 20.6555 18.9453 20.6319 18.9453C20.6201 18.9453 20.6201 18.9453 20.6083 18.9335C20.5964 18.9335 20.5846 18.9217 20.5728 18.9217C20.561 18.9217 20.5492 18.9217 20.5373 18.9099H20.5255H20.5137C20.5019 18.9099 20.4782 18.9099 20.4664 18.8981H20.4546H20.4428H20.431C20.3955 18.8981 20.3719 18.8981 20.3364 18.8981C20.3009 18.8981 20.2655 18.8981 20.2182 18.9099C20.1945 18.9099 20.1709 18.9099 20.1473 18.9217H20.1354H20.1236H20.1118H20.1C20.0645 18.9335 20.0409 18.9335 20.0054 18.9453C19.9818 18.9572 19.9463 18.969 19.9227 18.969L19.9108 19.0044C20.0409 18.9572 20.1827 18.9217 20.3246 18.9217C20.4546 18.9217 20.5846 18.9453 20.7028 18.9926C20.7147 18.9926 20.7147 18.9808 20.7147 18.969ZM20.7147 18.969C20.7028 18.969 20.691 18.9572 20.6792 18.9572C20.6674 18.9572 20.6555 18.9453 20.6319 18.9453C20.6201 18.9453 20.6201 18.9453 20.6083 18.9335C20.5964 18.9335 20.5846 18.9217 20.5728 18.9217C20.561 18.9217 20.5492 18.9217 20.5373 18.9099H20.5255H20.5137C20.5019 18.9099 20.4782 18.9099 20.4664 18.8981H20.4546H20.4428H20.431C20.3955 18.8981 20.3719 18.8981 20.3364 18.8981C20.3009 18.8981 20.2655 18.8981 20.2182 18.9099C20.1945 18.9099 20.1709 18.9099 20.1473 18.9217H20.1354H20.1236H20.1118H20.1C20.0645 18.9335 20.0409 18.9335 20.0054 18.9453C19.9818 18.9572 19.9463 18.969 19.9227 18.969L19.9108 19.0044C20.0409 18.9572 20.1827 18.9217 20.3246 18.9217C20.4546 18.9217 20.5846 18.9453 20.7028 18.9926C20.7147 18.9926 20.7147 18.9808 20.7147 18.969ZM20.7147 18.969C20.7028 18.969 20.691 18.9572 20.6792 18.9572C20.6674 18.9572 20.6555 18.9453 20.6319 18.9453C20.6201 18.9453 20.6201 18.9453 20.6083 18.9335C20.5964 18.9335 20.5846 18.9217 20.5728 18.9217C20.561 18.9217 20.5492 18.9217 20.5373 18.9099H20.5255H20.5137C20.5019 18.9099 20.4782 18.9099 20.4664 18.8981H20.4546H20.4428H20.431C20.3955 18.8981 20.3719 18.8981 20.3364 18.8981C20.3009 18.8981 20.2655 18.8981 20.2182 18.9099C20.1945 18.9099 20.1709 18.9099 20.1473 18.9217H20.1354H20.1236H20.1118H20.1C20.0645 18.9335 20.0409 18.9335 20.0054 18.9453C19.9818 18.9572 19.9463 18.969 19.9227 18.969L19.9108 19.0044C20.0409 18.9572 20.1827 18.9217 20.3246 18.9217C20.4546 18.9217 20.5846 18.9453 20.7028 18.9926C20.7147 18.9926 20.7147 18.9808 20.7147 18.969ZM20.7147 18.969C20.7028 18.969 20.691 18.9572 20.6792 18.9572C20.6674 18.9572 20.6555 18.9453 20.6319 18.9453C20.6201 18.9453 20.6201 18.9453 20.6083 18.9335C20.5964 18.9335 20.5846 18.9217 20.5728 18.9217C20.561 18.9217 20.5492 18.9217 20.5373 18.9099H20.5255H20.5137C20.5019 18.9099 20.4782 18.9099 20.4664 18.8981H20.4546H20.4428H20.431C20.3955 18.8981 20.3719 18.8981 20.3364 18.8981C20.3009 18.8981 20.2655 18.8981 20.2182 18.9099C20.1945 18.9099 20.1709 18.9099 20.1473 18.9217H20.1354H20.1236H20.1118H20.1C20.0645 18.9335 20.0409 18.9335 20.0054 18.9453C19.9818 18.9572 19.9463 18.969 19.9227 18.969L19.9108 19.0044C20.0409 18.9572 20.1827 18.9217 20.3246 18.9217C20.4546 18.9217 20.5846 18.9453 20.7028 18.9926C20.7147 18.9926 20.7147 18.9808 20.7147 18.969ZM20.7147 18.969C20.7028 18.969 20.691 18.9572 20.6792 18.9572C20.6674 18.9572 20.6555 18.9453 20.6319 18.9453C20.6201 18.9453 20.6201 18.9453 20.6083 18.9335C20.5964 18.9335 20.5846 18.9217 20.5728 18.9217C20.561 18.9217 20.5492 18.9217 20.5373 18.9099H20.5255H20.5137C20.5019 18.9099 20.4782 18.9099 20.4664 18.8981H20.4546H20.4428H20.431C20.3955 18.8981 20.3719 18.8981 20.3364 18.8981C20.3009 18.8981 20.2655 18.8981 20.2182 18.9099C20.1945 18.9099 20.1709 18.9099 20.1473 18.9217H20.1354H20.1236H20.1118H20.1C20.0645 18.9335 20.0409 18.9335 20.0054 18.9453C19.9818 18.9572 19.9463 18.969 19.9227 18.969L19.9108 19.0044C20.0409 18.9572 20.1827 18.9217 20.3246 18.9217C20.4546 18.9217 20.5846 18.9453 20.7028 18.9926C20.7147 18.9926 20.7147 18.9808 20.7147 18.969ZM20.7147 18.969C20.7028 18.969 20.691 18.9572 20.6792 18.9572C20.6674 18.9572 20.6555 18.9453 20.6319 18.9453C20.6201 18.9453 20.6201 18.9453 20.6083 18.9335C20.5964 18.9335 20.5846 18.9217 20.5728 18.9217C20.561 18.9217 20.5492 18.9217 20.5373 18.9099H20.5255H20.5137C20.5019 18.9099 20.4782 18.9099 20.4664 18.8981H20.4546H20.4428H20.431C20.3955 18.8981 20.3719 18.8981 20.3364 18.8981C20.3009 18.8981 20.2655 18.8981 20.2182 18.9099C20.1945 18.9099 20.1709 18.9099 20.1473 18.9217H20.1354H20.1236H20.1118H20.1C20.0645 18.9335 20.0409 18.9335 20.0054 18.9453C19.9818 18.9572 19.9463 18.969 19.9227 18.969L19.9108 19.0044C20.0409 18.9572 20.1827 18.9217 20.3246 18.9217C20.4546 18.9217 20.5846 18.9453 20.7028 18.9926C20.7147 18.9926 20.7147 18.9808 20.7147 18.969ZM21.4594 19.7964C21.4475 19.7373 21.4357 19.6782 21.4121 19.6309C21.3293 19.4063 21.1875 19.2172 20.9865 19.0872C20.9038 19.0281 20.8092 18.9808 20.7147 18.9453C20.5964 18.8981 20.4664 18.8862 20.3364 18.8862C20.1945 18.8862 20.0645 18.9099 19.9345 18.9572C19.7572 19.0281 19.6035 19.1345 19.4853 19.2763C19.308 19.4773 19.2016 19.7373 19.2016 20.0328C19.2016 20.1983 19.2371 20.352 19.2962 20.482C19.3671 20.6475 19.4735 20.7894 19.6035 20.8958C19.6744 20.9549 19.7572 21.0021 19.8399 21.0494C19.9936 21.1203 20.1591 21.1676 20.3364 21.1676C20.5373 21.1676 20.7265 21.1203 20.8801 21.0258C20.892 21.014 20.9038 21.014 20.9156 21.0021C21.0811 20.8958 21.2229 20.7539 21.3175 20.5766C21.3293 20.5648 21.3293 20.553 21.3411 20.5293C21.353 20.5057 21.3766 20.4702 21.3884 20.4466C21.4475 20.3165 21.4712 20.1747 21.4712 20.021C21.483 19.9383 21.4712 19.8673 21.4594 19.7964ZM20.3364 21.0849C20.1473 21.0849 19.9818 21.0376 19.8281 20.9549C19.7572 20.9076 19.6862 20.8603 19.6153 20.813C19.4735 20.683 19.3671 20.5293 19.308 20.3402C19.2725 20.2338 19.2607 20.1274 19.2607 20.0092C19.2607 19.7728 19.3316 19.56 19.4617 19.3827C19.5799 19.2172 19.7335 19.0872 19.9227 19.0163C20.0527 18.969 20.1945 18.9335 20.3364 18.9335C20.4664 18.9335 20.5964 18.9572 20.7147 19.0044C20.821 19.0399 20.9038 19.099 20.9865 19.1581C21.152 19.2763 21.2702 19.4536 21.3411 19.6428C21.353 19.6782 21.3648 19.7137 21.3766 19.7491C21.4003 19.8319 21.4121 19.9146 21.4121 20.0092C21.4121 20.4111 21.1875 20.7657 20.8565 20.943C20.7028 21.0376 20.5255 21.0849 20.3364 21.0849ZM20.7147 18.969C20.7028 18.969 20.691 18.9572 20.6792 18.9572C20.6674 18.9572 20.6555 18.9453 20.6319 18.9453C20.6201 18.9453 20.6201 18.9453 20.6083 18.9335C20.5964 18.9335 20.5846 18.9217 20.5728 18.9217C20.561 18.9217 20.5492 18.9217 20.5373 18.9099H20.5255H20.5137C20.5019 18.9099 20.4782 18.9099 20.4664 18.8981H20.4546H20.4428H20.431C20.3955 18.8981 20.3719 18.8981 20.3364 18.8981C20.3009 18.8981 20.2655 18.8981 20.2182 18.9099C20.1945 18.9099 20.1709 18.9099 20.1473 18.9217H20.1354H20.1236H20.1118H20.1C20.0645 18.9335 20.0409 18.9335 20.0054 18.9453C19.9818 18.9572 19.9463 18.969 19.9227 18.969L19.9108 19.0044C20.0409 18.9572 20.1827 18.9217 20.3246 18.9217C20.4546 18.9217 20.5846 18.9453 20.7028 18.9926C20.7147 18.9926 20.7147 18.9808 20.7147 18.969ZM20.7147 18.969C20.7028 18.969 20.691 18.9572 20.6792 18.9572C20.6674 18.9572 20.6555 18.9453 20.6319 18.9453C20.6201 18.9453 20.6201 18.9453 20.6083 18.9335C20.5964 18.9335 20.5846 18.9217 20.5728 18.9217C20.561 18.9217 20.5492 18.9217 20.5373 18.9099H20.5255H20.5137C20.5019 18.9099 20.4782 18.9099 20.4664 18.8981H20.4546H20.4428H20.431C20.3955 18.8981 20.3719 18.8981 20.3364 18.8981C20.3009 18.8981 20.2655 18.8981 20.2182 18.9099C20.1945 18.9099 20.1709 18.9099 20.1473 18.9217H20.1354H20.1236H20.1118H20.1C20.0645 18.9335 20.0409 18.9335 20.0054 18.9453C19.9818 18.9572 19.9463 18.969 19.9227 18.969L19.9108 19.0044C20.0409 18.9572 20.1827 18.9217 20.3246 18.9217C20.4546 18.9217 20.5846 18.9453 20.7028 18.9926C20.7147 18.9926 20.7147 18.9808 20.7147 18.969ZM20.7147 18.969C20.7028 18.969 20.691 18.9572 20.6792 18.9572C20.6674 18.9572 20.6555 18.9453 20.6319 18.9453C20.6201 18.9453 20.6201 18.9453 20.6083 18.9335C20.5964 18.9335 20.5846 18.9217 20.5728 18.9217C20.561 18.9217 20.5492 18.9217 20.5373 18.9099H20.5255H20.5137C20.5019 18.9099 20.4782 18.9099 20.4664 18.8981H20.4546H20.4428H20.431C20.3955 18.8981 20.3719 18.8981 20.3364 18.8981C20.3009 18.8981 20.2655 18.8981 20.2182 18.9099C20.1945 18.9099 20.1709 18.9099 20.1473 18.9217H20.1354H20.1236H20.1118H20.1C20.0645 18.9335 20.0409 18.9335 20.0054 18.9453C19.9818 18.9572 19.9463 18.969 19.9227 18.969L19.9108 19.0044C20.0409 18.9572 20.1827 18.9217 20.3246 18.9217C20.4546 18.9217 20.5846 18.9453 20.7028 18.9926C20.7147 18.9926 20.7147 18.9808 20.7147 18.969ZM20.7147 18.969C20.7028 18.969 20.691 18.9572 20.6792 18.9572C20.6674 18.9572 20.6555 18.9453 20.6319 18.9453C20.6201 18.9453 20.6201 18.9453 20.6083 18.9335C20.5964 18.9335 20.5846 18.9217 20.5728 18.9217C20.561 18.9217 20.5492 18.9217 20.5373 18.9099H20.5255H20.5137C20.5019 18.9099 20.4782 18.9099 20.4664 18.8981H20.4546H20.4428H20.431C20.3955 18.8981 20.3719 18.8981 20.3364 18.8981C20.3009 18.8981 20.2655 18.8981 20.2182 18.9099C20.1945 18.9099 20.1709 18.9099 20.1473 18.9217H20.1354H20.1236H20.1118H20.1C20.0645 18.9335 20.0409 18.9335 20.0054 18.9453C19.9818 18.9572 19.9463 18.969 19.9227 18.969L19.9108 19.0044C20.0409 18.9572 20.1827 18.9217 20.3246 18.9217C20.4546 18.9217 20.5846 18.9453 20.7028 18.9926C20.7147 18.9926 20.7147 18.9808 20.7147 18.969ZM20.7147 18.969C20.7028 18.969 20.691 18.9572 20.6792 18.9572C20.6674 18.9572 20.6555 18.9453 20.6319 18.9453C20.6201 18.9453 20.6201 18.9453 20.6083 18.9335C20.5964 18.9335 20.5846 18.9217 20.5728 18.9217C20.561 18.9217 20.5492 18.9217 20.5373 18.9099H20.5255H20.5137C20.5019 18.9099 20.4782 18.9099 20.4664 18.8981H20.4546H20.4428H20.431C20.3955 18.8981 20.3719 18.8981 20.3364 18.8981C20.3009 18.8981 20.2655 18.8981 20.2182 18.9099C20.1945 18.9099 20.1709 18.9099 20.1473 18.9217H20.1354H20.1236H20.1118H20.1C20.0645 18.9335 20.0409 18.9335 20.0054 18.9453C19.9818 18.9572 19.9463 18.969 19.9227 18.969L19.9108 19.0044C20.0409 18.9572 20.1827 18.9217 20.3246 18.9217C20.4546 18.9217 20.5846 18.9453 20.7028 18.9926C20.7147 18.9926 20.7147 18.9808 20.7147 18.969ZM20.7147 18.969C20.7028 18.969 20.691 18.9572 20.6792 18.9572C20.6674 18.9572 20.6555 18.9453 20.6319 18.9453C20.6201 18.9453 20.6201 18.9453 20.6083 18.9335C20.5964 18.9335 20.5846 18.9217 20.5728 18.9217C20.561 18.9217 20.5492 18.9217 20.5373 18.9099H20.5255H20.5137C20.5019 18.9099 20.4782 18.9099 20.4664 18.8981H20.4546H20.4428H20.431C20.3955 18.8981 20.3719 18.8981 20.3364 18.8981C20.3009 18.8981 20.2655 18.8981 20.2182 18.9099C20.1945 18.9099 20.1709 18.9099 20.1473 18.9217H20.1354H20.1236H20.1118H20.1C20.0645 18.9335 20.0409 18.9335 20.0054 18.9453C19.9818 18.9572 19.9463 18.969 19.9227 18.969L19.9108 19.0044C20.0409 18.9572 20.1827 18.9217 20.3246 18.9217C20.4546 18.9217 20.5846 18.9453 20.7028 18.9926C20.7147 18.9926 20.7147 18.9808 20.7147 18.969ZM20.7147 18.969C20.7028 18.969 20.691 18.9572 20.6792 18.9572C20.6674 18.9572 20.6555 18.9453 20.6319 18.9453C20.6201 18.9453 20.6201 18.9453 20.6083 18.9335C20.5964 18.9335 20.5846 18.9217 20.5728 18.9217C20.561 18.9217 20.5492 18.9217 20.5373 18.9099H20.5255H20.5137C20.5019 18.9099 20.4782 18.9099 20.4664 18.8981H20.4546H20.4428H20.431C20.3955 18.8981 20.3719 18.8981 20.3364 18.8981C20.3009 18.8981 20.2655 18.8981 20.2182 18.9099C20.1945 18.9099 20.1709 18.9099 20.1473 18.9217H20.1354H20.1236H20.1118H20.1C20.0645 18.9335 20.0409 18.9335 20.0054 18.9453C19.9818 18.9572 19.9463 18.969 19.9227 18.969L19.9108 19.0044C20.0409 18.9572 20.1827 18.9217 20.3246 18.9217C20.4546 18.9217 20.5846 18.9453 20.7028 18.9926C20.7147 18.9926 20.7147 18.9808 20.7147 18.969ZM20.7147 18.969C20.7028 18.969 20.691 18.9572 20.6792 18.9572C20.6674 18.9572 20.6555 18.9453 20.6319 18.9453C20.6201 18.9453 20.6201 18.9453 20.6083 18.9335C20.5964 18.9335 20.5846 18.9217 20.5728 18.9217C20.561 18.9217 20.5492 18.9217 20.5373 18.9099H20.5255H20.5137C20.5019 18.9099 20.4782 18.9099 20.4664 18.8981H20.4546H20.4428H20.431C20.3955 18.8981 20.3719 18.8981 20.3364 18.8981C20.3009 18.8981 20.2655 18.8981 20.2182 18.9099C20.1945 18.9099 20.1709 18.9099 20.1473 18.9217H20.1354H20.1236H20.1118H20.1C20.0645 18.9335 20.0409 18.9335 20.0054 18.9453C19.9818 18.9572 19.9463 18.969 19.9227 18.969L19.9108 19.0044C20.0409 18.9572 20.1827 18.9217 20.3246 18.9217C20.4546 18.9217 20.5846 18.9453 20.7028 18.9926C20.7147 18.9926 20.7147 18.9808 20.7147 18.969ZM20.7147 18.969C20.7028 18.969 20.691 18.9572 20.6792 18.9572C20.6674 18.9572 20.6555 18.9453 20.6319 18.9453C20.6201 18.9453 20.6201 18.9453 20.6083 18.9335C20.5964 18.9335 20.5846 18.9217 20.5728 18.9217C20.561 18.9217 20.5492 18.9217 20.5373 18.9099H20.5255H20.5137C20.5019 18.9099 20.4782 18.9099 20.4664 18.8981H20.4546H20.4428H20.431C20.3955 18.8981 20.3719 18.8981 20.3364 18.8981C20.3009 18.8981 20.2655 18.8981 20.2182 18.9099C20.1945 18.9099 20.1709 18.9099 20.1473 18.9217H20.1354H20.1236H20.1118H20.1C20.0645 18.9335 20.0409 18.9335 20.0054 18.9453C19.9818 18.9572 19.9463 18.969 19.9227 18.969L19.9108 19.0044C20.0409 18.9572 20.1827 18.9217 20.3246 18.9217C20.4546 18.9217 20.5846 18.9453 20.7028 18.9926C20.7147 18.9926 20.7147 18.9808 20.7147 18.969ZM20.7147 18.969C20.7028 18.969 20.691 18.9572 20.6792 18.9572C20.6674 18.9572 20.6555 18.9453 20.6319 18.9453C20.6201 18.9453 20.6201 18.9453 20.6083 18.9335C20.5964 18.9335 20.5846 18.9217 20.5728 18.9217C20.561 18.9217 20.5492 18.9217 20.5373 18.9099H20.5255H20.5137C20.5019 18.9099 20.4782 18.9099 20.4664 18.8981H20.4546H20.4428H20.431C20.3955 18.8981 20.3719 18.8981 20.3364 18.8981C20.3009 18.8981 20.2655 18.8981 20.2182 18.9099C20.1945 18.9099 20.1709 18.9099 20.1473 18.9217H20.1354H20.1236H20.1118H20.1C20.0645 18.9335 20.0409 18.9335 20.0054 18.9453C19.9818 18.9572 19.9463 18.969 19.9227 18.969L19.9108 19.0044C20.0409 18.9572 20.1827 18.9217 20.3246 18.9217C20.4546 18.9217 20.5846 18.9453 20.7028 18.9926C20.7147 18.9926 20.7147 18.9808 20.7147 18.969ZM20.7147 18.969C20.7028 18.969 20.691 18.9572 20.6792 18.9572C20.6674 18.9572 20.6555 18.9453 20.6319 18.9453C20.6201 18.9453 20.6201 18.9453 20.6083 18.9335C20.5964 18.9335 20.5846 18.9217 20.5728 18.9217C20.561 18.9217 20.5492 18.9217 20.5373 18.9099H20.5255H20.5137C20.5019 18.9099 20.4782 18.9099 20.4664 18.8981H20.4546H20.4428H20.431C20.3955 18.8981 20.3719 18.8981 20.3364 18.8981C20.3009 18.8981 20.2655 18.8981 20.2182 18.9099C20.1945 18.9099 20.1709 18.9099 20.1473 18.9217H20.1354H20.1236H20.1118H20.1C20.0645 18.9335 20.0409 18.9335 20.0054 18.9453C19.9818 18.9572 19.9463 18.969 19.9227 18.969L19.9108 19.0044C20.0409 18.9572 20.1827 18.9217 20.3246 18.9217C20.4546 18.9217 20.5846 18.9453 20.7028 18.9926C20.7147 18.9926 20.7147 18.9808 20.7147 18.969ZM20.7147 18.969C20.7028 18.969 20.691 18.9572 20.6792 18.9572C20.6674 18.9572 20.6555 18.9453 20.6319 18.9453C20.6201 18.9453 20.6201 18.9453 20.6083 18.9335C20.5964 18.9335 20.5846 18.9217 20.5728 18.9217C20.561 18.9217 20.5492 18.9217 20.5373 18.9099H20.5255H20.5137C20.5019 18.9099 20.4782 18.9099 20.4664 18.8981H20.4546H20.4428H20.431C20.3955 18.8981 20.3719 18.8981 20.3364 18.8981C20.3009 18.8981 20.2655 18.8981 20.2182 18.9099C20.1945 18.9099 20.1709 18.9099 20.1473 18.9217H20.1354H20.1236H20.1118H20.1C20.0645 18.9335 20.0409 18.9335 20.0054 18.9453C19.9818 18.9572 19.9463 18.969 19.9227 18.969L19.9108 19.0044C20.0409 18.9572 20.1827 18.9217 20.3246 18.9217C20.4546 18.9217 20.5846 18.9453 20.7028 18.9926C20.7147 18.9926 20.7147 18.9808 20.7147 18.969ZM20.7147 18.969C20.7028 18.969 20.691 18.9572 20.6792 18.9572C20.6674 18.9572 20.6555 18.9453 20.6319 18.9453C20.6201 18.9453 20.6201 18.9453 20.6083 18.9335C20.5964 18.9335 20.5846 18.9217 20.5728 18.9217C20.561 18.9217 20.5492 18.9217 20.5373 18.9099H20.5255H20.5137C20.5019 18.9099 20.4782 18.9099 20.4664 18.8981H20.4546H20.4428H20.431C20.3955 18.8981 20.3719 18.8981 20.3364 18.8981C20.3009 18.8981 20.2655 18.8981 20.2182 18.9099C20.1945 18.9099 20.1709 18.9099 20.1473 18.9217H20.1354H20.1236H20.1118H20.1C20.0645 18.9335 20.0409 18.9335 20.0054 18.9453C19.9818 18.9572 19.9463 18.969 19.9227 18.969L19.9108 19.0044C20.0409 18.9572 20.1827 18.9217 20.3246 18.9217C20.4546 18.9217 20.5846 18.9453 20.7028 18.9926C20.7147 18.9926 20.7147 18.9808 20.7147 18.969ZM20.7147 18.969C20.7028 18.969 20.691 18.9572 20.6792 18.9572C20.6674 18.9572 20.6555 18.9453 20.6319 18.9453C20.6201 18.9453 20.6201 18.9453 20.6083 18.9335C20.5964 18.9335 20.5846 18.9217 20.5728 18.9217C20.561 18.9217 20.5492 18.9217 20.5373 18.9099H20.5255H20.5137C20.5019 18.9099 20.4782 18.9099 20.4664 18.8981H20.4546H20.4428H20.431C20.3955 18.8981 20.3719 18.8981 20.3364 18.8981C20.3009 18.8981 20.2655 18.8981 20.2182 18.9099C20.1945 18.9099 20.1709 18.9099 20.1473 18.9217H20.1354H20.1236H20.1118H20.1C20.0645 18.9335 20.0409 18.9335 20.0054 18.9453C19.9818 18.9572 19.9463 18.969 19.9227 18.969L19.9108 19.0044C20.0409 18.9572 20.1827 18.9217 20.3246 18.9217C20.4546 18.9217 20.5846 18.9453 20.7028 18.9926C20.7147 18.9926 20.7147 18.9808 20.7147 18.969ZM20.7147 18.969C20.7028 18.969 20.691 18.9572 20.6792 18.9572C20.6674 18.9572 20.6555 18.9453 20.6319 18.9453C20.6201 18.9453 20.6201 18.9453 20.6083 18.9335C20.5964 18.9335 20.5846 18.9217 20.5728 18.9217C20.561 18.9217 20.5492 18.9217 20.5373 18.9099H20.5255H20.5137C20.5019 18.9099 20.4782 18.9099 20.4664 18.8981H20.4546H20.4428H20.431C20.3955 18.8981 20.3719 18.8981 20.3364 18.8981C20.3009 18.8981 20.2655 18.8981 20.2182 18.9099C20.1945 18.9099 20.1709 18.9099 20.1473 18.9217H20.1354H20.1236H20.1118H20.1C20.0645 18.9335 20.0409 18.9335 20.0054 18.9453C19.9818 18.9572 19.9463 18.969 19.9227 18.969L19.9108 19.0044C20.0409 18.9572 20.1827 18.9217 20.3246 18.9217C20.4546 18.9217 20.5846 18.9453 20.7028 18.9926C20.7147 18.9926 20.7147 18.9808 20.7147 18.969Z" fill="#444444"/>
<g opacity="0.3">
<g opacity="0.3">
<path opacity="0.3" d="M20.8921 21.0139L20.6084 20.4229L20.8094 19.8791L21.424 19.6191C21.4122 19.6191 21.7787 20.3992 20.8921 21.0139Z" fill="#F5FFFF"/>
</g>
</g>
<path d="M20.8329 20.092C20.8329 20.3757 20.6083 20.6121 20.3364 20.6121C20.0646 20.6121 19.84 20.3757 19.84 20.092C19.84 19.8083 20.0646 19.5719 20.3364 19.5719C20.6083 19.5719 20.8329 19.8083 20.8329 20.092Z" fill="#635B53"/>
<g opacity="0.4">
<g opacity="0.4">
<path opacity="0.4" d="M20.1592 18.8626L20.2183 19.5364L19.84 19.9737L19.178 20.0092C19.1899 20.0092 19.1189 19.1345 20.1592 18.8626Z" fill="#F5FFFF"/>
</g>
</g>
<path d="M20.7856 20.0093C20.7856 20.2575 20.5847 20.4467 20.3483 20.4467C20.1 20.4467 19.9109 20.2457 19.9109 20.0093C19.9109 19.7611 20.1118 19.5719 20.3483 19.5719C20.5847 19.5719 20.7856 19.7729 20.7856 20.0093Z" fill="#F5FFFF"/>
<path d="M20.3365 20.4821C20.0764 20.4821 19.8636 20.2693 19.8636 20.0092C19.8636 19.7492 20.0764 19.5364 20.3365 19.5364C20.5965 19.5364 20.8093 19.7492 20.8093 20.0092C20.8093 20.2693 20.5965 20.4821 20.3365 20.4821ZM20.3365 19.5955C20.1119 19.5955 19.9228 19.7846 19.9228 20.0092C19.9228 20.2338 20.1119 20.423 20.3365 20.423C20.5611 20.423 20.7502 20.2338 20.7502 20.0092C20.7502 19.7846 20.5611 19.5955 20.3365 19.5955Z" fill="#A8A6A0"/>
<path d="M20.5138 20.0683C20.5138 20.1629 20.4311 20.2456 20.3365 20.2456C20.2419 20.2456 20.1592 20.1629 20.1592 20.0683C20.1592 19.9738 20.2419 19.891 20.3365 19.891C20.4311 19.891 20.5138 19.9619 20.5138 20.0683Z" fill="#F5FFFF"/>
<path d="M20.3365 20.1866C20.4344 20.1866 20.5138 20.1072 20.5138 20.0093C20.5138 19.9113 20.4344 19.8319 20.3365 19.8319C20.2386 19.8319 20.1592 19.9113 20.1592 20.0093C20.1592 20.1072 20.2386 20.1866 20.3365 20.1866Z" fill="#F5FFFF"/>
<path d="M9.2723 23.3663H9.18956C9.16591 23.3663 9.14227 23.3426 9.14227 23.319V22.9762C9.14227 22.9525 9.16591 22.9289 9.18956 22.9289H9.2723C9.29594 22.9289 9.31958 22.9525 9.31958 22.9762V23.319C9.3314 23.3426 9.30776 23.3663 9.2723 23.3663Z" fill="#AAA9A2"/>
<path d="M10.5725 23.3544L10.4898 23.3663C10.4661 23.3663 10.4307 23.3426 10.4307 23.319L10.3952 22.9762C10.3952 22.9525 10.4188 22.9171 10.4425 22.9171L10.5252 22.9052C10.5489 22.9052 10.5843 22.9289 10.5843 22.9525L10.6198 23.2953C10.6198 23.3308 10.608 23.3544 10.5725 23.3544Z" fill="#AAA9A2"/>
<g opacity="0.4">
<g opacity="0.4">
<path opacity="0.4" d="M20.2301 19.631C19.97 19.7137 19.9582 19.9501 19.9582 19.9501L20.2064 19.9738L20.2774 19.9028L20.2301 19.631Z" fill="#F5FFFF"/>
</g>
</g>
<g opacity="0.4">
<g opacity="0.4">
<path opacity="0.4" d="M20.573 20.3402C20.7857 20.1747 20.7148 19.9501 20.7148 19.9501L20.4784 20.021L20.4429 20.1037L20.573 20.3402Z" fill="#F5FFFF"/>
</g>
</g>
<path d="M10.3243 7.72747C10.3243 7.72747 9.85145 5.83616 9.75689 4.87868C9.66232 3.9212 9.56776 2.64457 10.6434 2.2072C11.7191 1.76983 11.3881 3.10557 11.3881 3.10557C11.3881 3.10557 10.5371 3.67297 10.3716 5.1151C10.277 5.88344 10.3243 7.72747 10.3243 7.72747Z" fill="#2A445D"/>
<path d="M17.4759 7.69202C17.4759 7.69202 18.0078 5.82435 18.0905 4.86687C18.1733 3.90939 18.2797 2.63276 17.204 2.19539C16.1283 1.75802 16.4593 3.09376 16.4593 3.09376C16.4593 3.09376 17.3104 3.66116 17.4759 5.10329C17.5704 5.88345 17.4759 7.69202 17.4759 7.69202Z" fill="#2A445D"/>
<path d="M16.6011 3.55476C16.6011 3.55476 15.289 3.76754 14.4143 3.35381C14.1542 3.2356 12.913 3.76753 12.3338 3.66115C11.2345 3.4602 10.7498 2.56182 10.7262 2.46726C10.6671 2.19538 10.3952 1.81712 11.199 1.21426C12.2984 0.38681 13.6577 0.587762 13.8823 0.351348C14.1069 0.114934 14.3433 -0.0387356 14.7807 0.00854725C15.9628 0.126754 16.0219 0.812356 16.6838 0.918742C17.5468 1.04877 17.8423 1.40339 17.8896 2.12446C17.9841 3.49566 16.6011 3.55476 16.6011 3.55476Z" fill="#2A445D"/>
<path d="M14.0951 0.162231C14.0951 0.162231 13.7287 0.422287 12.7949 1.50979C11.8728 2.58548 11.3882 2.52637 11.2818 2.5382C11.2818 2.5382 12.0856 2.68004 12.9249 1.5689C13.7878 0.457749 14.0951 0.162231 14.0951 0.162231Z" fill="#1F384C"/>
<path d="M15.5609 3.51929C15.5609 3.51929 17.1094 3.6966 17.7832 2.89279C17.7832 2.89279 17.6414 3.74388 15.5964 3.53111L15.5609 3.51929Z" fill="#1F384C"/>
<path d="M13.0076 3.5429C11.1872 3.80295 10.6553 2.2899 10.6671 2.32536C10.9508 3.23556 11.6837 3.59018 12.2156 3.73203C12.3811 3.77931 12.5348 3.80295 12.6885 3.81477C12.7712 3.82659 12.8303 3.8266 12.8303 3.8266C14.568 3.83842 15.9864 1.99438 15.9864 1.99438C14.8044 2.99915 13.7523 3.40105 13.0076 3.5429Z" fill="#1F384C"/>
<path d="M12.2759 7.75109C12.1314 7.75109 11.9928 7.69369 11.8906 7.59151C11.7884 7.48934 11.731 7.35075 11.731 7.20625V7.04776C11.731 6.80178 11.8287 6.56587 12.0027 6.39194L12.058 6.33656C12.2347 6.15995 12.4742 6.06073 12.724 6.06073H12.8967C13.0359 6.06073 13.1693 6.11601 13.2677 6.2144C13.3661 6.31279 13.4214 6.44624 13.4214 6.58539V6.75815C13.4214 7.00792 13.3222 7.24745 13.1456 7.42407L13.0902 7.47944C12.9162 7.65338 12.6803 7.75109 12.4344 7.75109H12.2759Z" fill="#F5FFFF"/>
<path d="M16.1756 7.2738C16.1756 7.41295 16.1203 7.5464 16.0219 7.64479C15.9235 7.74318 15.7901 7.79846 15.6509 7.79846L15.4782 7.79846C15.2284 7.79846 14.9889 7.69924 14.8123 7.52263L14.7569 7.46726C14.5829 7.29332 14.4852 7.05741 14.4852 6.81143L14.4852 6.65294C14.4852 6.50844 14.5426 6.36986 14.6448 6.26768C14.747 6.1655 14.8856 6.1081 15.0301 6.1081L15.1886 6.1081C15.4345 6.1081 15.6705 6.20582 15.8444 6.37975L15.8998 6.43512C16.0764 6.61174 16.1756 6.85127 16.1756 7.10104L16.1756 7.2738Z" fill="#F5FFFF"/>
<path d="M16.1165 5.82433C15.8919 5.67066 15.6437 5.59973 15.3718 5.64702C15.2536 5.65884 15.159 5.55245 15.1945 5.44606C15.2063 5.38696 15.2536 5.33968 15.3009 5.32786C15.6791 5.20965 16.0574 5.26875 16.3411 5.57609C16.3766 5.61155 16.3884 5.67066 16.3766 5.72976V5.74158C16.3529 5.83615 16.2229 5.89525 16.1165 5.82433Z" fill="#2A445D"/>
<path d="M15.3245 7.19557C15.4355 7.19557 15.5254 7.08443 15.5254 6.94733C15.5254 6.81023 15.4355 6.6991 15.3245 6.6991C15.2135 6.6991 15.1235 6.81023 15.1235 6.94733C15.1235 7.08443 15.2135 7.19557 15.3245 7.19557Z" fill="#210601"/>
<path d="M12.582 6.67551C12.4756 6.67551 12.381 6.78189 12.381 6.92374C12.381 7.06559 12.4638 7.17198 12.582 7.17198C12.7002 7.17198 12.7829 7.06559 12.7829 6.92374C12.7711 6.79371 12.6884 6.67551 12.582 6.67551Z" fill="#210601"/>
<path d="M16.1046 6.69913C15.9983 6.36815 15.6909 6.13174 15.3245 6.13174C14.9107 6.13174 14.5798 6.43907 14.5088 6.82916C14.367 6.66367 14.1542 6.55728 13.9296 6.55728C13.7169 6.55728 13.5277 6.64003 13.3859 6.78187C13.3149 6.40361 12.984 6.10809 12.5821 6.10809C12.2156 6.10809 11.9083 6.34451 11.8019 6.67549C10.4307 6.19084 10.0997 6.13174 10.0051 6.14356C9.98151 6.14356 9.95787 6.19084 9.94604 6.21448L10.017 6.23812C10.017 6.23812 10.0288 6.2263 10.0288 6.21448C10.147 6.20266 10.9981 6.47454 11.7664 6.74641C11.7546 6.80552 11.7428 6.8528 11.7428 6.9119C11.7428 7.36109 12.1092 7.73935 12.5702 7.73935C12.8776 7.73935 13.1376 7.57386 13.2795 7.32563C13.3031 7.32563 13.3268 7.31381 13.3504 7.30199C13.3741 7.29016 13.3977 7.27834 13.4095 7.2547C13.445 7.21924 13.4686 7.17196 13.4686 7.11285C13.4923 6.98283 13.4568 6.88826 13.4213 6.84098C13.5514 6.71095 13.7169 6.6282 13.9178 6.6282C14.1306 6.6282 14.3197 6.72277 14.4379 6.87644C14.4025 6.93554 14.3788 7.01829 14.4025 7.1365C14.4143 7.18378 14.4261 7.24288 14.4616 7.27834C14.4852 7.30199 14.497 7.31381 14.5207 7.32563C14.5443 7.33745 14.5679 7.34927 14.5916 7.34927C14.7334 7.5975 14.9935 7.76299 15.3008 7.76299C15.75 7.76299 16.1283 7.39655 16.1283 6.93554C16.1283 6.87644 16.1165 6.81734 16.1046 6.77005C16.8848 6.49818 17.7359 6.21448 17.8305 6.23812L17.9132 6.20266C17.925 6.14356 17.8896 6.06081 16.1046 6.69913ZM12.5821 7.66843C12.1802 7.66843 11.8492 7.33745 11.8492 6.93554C11.8492 6.53364 12.1802 6.20266 12.5821 6.20266C12.984 6.20266 13.3149 6.53364 13.3149 6.93554C13.3149 7.33745 12.984 7.66843 12.5821 7.66843ZM13.3977 7.16014C13.3859 7.18378 13.3741 7.1956 13.3622 7.20742C13.3622 7.20742 13.3504 7.21924 13.3386 7.21924C13.3741 7.1365 13.3859 7.04193 13.3977 6.94736C13.4095 6.95918 13.4095 6.98283 13.4095 6.99465C13.4213 7.05375 13.4213 7.11285 13.3977 7.16014ZM14.5443 7.23106C14.5325 7.21924 14.5207 7.1956 14.5088 7.18378C14.4852 7.1365 14.4852 7.06557 14.497 7.01829C14.497 7.00647 14.5088 6.98283 14.5088 6.971C14.5088 7.06557 14.5325 7.16014 14.5679 7.24288C14.5561 7.24288 14.5443 7.24288 14.5443 7.23106ZM15.3245 7.68025C14.9226 7.68025 14.5916 7.34927 14.5916 6.94736C14.5916 6.54546 14.9226 6.21448 15.3245 6.21448C15.7264 6.21448 16.0574 6.54546 16.0574 6.94736C16.0692 7.34927 15.7382 7.68025 15.3245 7.68025Z" fill="#302420"/>
<path d="M11.7901 5.80071C12.0147 5.64704 12.2629 5.57611 12.5348 5.6234C12.653 5.63522 12.7475 5.52883 12.7121 5.42244C12.7003 5.36334 12.653 5.31606 12.6057 5.30424C12.2274 5.18603 11.8492 5.24513 11.5655 5.55247C11.53 5.58793 11.5182 5.64704 11.53 5.70614V5.71796C11.5536 5.81253 11.6955 5.87163 11.7901 5.80071Z" fill="#2A445D"/>
<path d="M8.18477 22.3378C8.18477 22.3378 7.972 17.9642 9.44959 17.3968C9.78057 17.2668 10.0997 17.3495 10.3361 17.4677C11.1163 17.8814 11.3173 19.3708 11.3764 20.0564C11.4591 20.9312 11.5773 22.2196 11.4236 22.5743C11.4236 22.5743 11.4828 20.5411 11.14 19.0635C10.7971 17.5859 10.1588 17.4204 9.74511 17.4441C9.33138 17.4677 8.85855 17.9287 8.58668 18.8271C8.30298 19.7255 8.18477 22.3378 8.18477 22.3378Z" fill="#1A2026"/>
<path d="M7.97198 22.6689C7.97198 22.657 8.07837 23.0589 8.46846 23.1417C8.85854 23.2363 9.07131 23.0235 9.07131 23.0235C9.07131 23.0235 9.04767 23.2717 9.08313 23.3426C9.07131 23.3308 7.99563 23.449 7.97198 22.6689Z" fill="#1A2026"/>
<path d="M11.6601 22.3615C11.6601 22.3497 11.6719 22.5388 11.601 22.6925C11.4591 22.9643 11.3409 22.9762 11.1991 23.0589C10.8444 23.248 10.7144 22.9998 10.7144 22.9998C10.7144 22.9998 10.7617 23.2362 10.7381 23.3071C10.7381 23.3071 11.7428 23.2835 11.6601 22.3615Z" fill="#1A2026"/>
<path d="M9.61511 14.8435L9.83971 14.7962L9.82789 14.9144L9.61511 14.9499V14.8435Z" fill="#1A2026"/>
<g opacity="0.1">
<g opacity="0.1">
<g opacity="0.1">
<path opacity="0.1" d="M10.0169 17.4677L10.0642 14.7608L9.83963 14.8081L9.79235 17.4914C8.56299 17.7041 8.31476 19.8791 8.2793 22.6688V22.8225C8.2793 23.3899 8.58664 23.5317 8.9649 23.5908C9.10675 23.6145 9.24859 23.6263 9.39044 23.6263C9.42591 23.7091 9.50865 23.7682 9.60322 23.7682C9.73324 23.7682 9.83963 23.6618 9.83963 23.5317V23.3426C9.83963 23.2126 9.73324 23.1062 9.60322 23.1062C9.48501 23.1062 9.39044 23.1889 9.37862 23.3072C9.07129 23.2953 8.69302 23.2244 8.56299 22.9998C8.44479 22.7752 8.51571 22.3024 8.52753 21.9832C8.61028 19.5482 8.87033 17.7041 10.0051 17.7041C11.1281 17.7041 11.66 19.5482 11.7428 21.9714C11.7546 22.2787 11.8019 22.7279 11.6955 22.9525C11.5891 23.1535 11.3172 23.248 11.0335 23.2835C10.9981 23.1771 10.9035 23.0944 10.7853 23.118C10.6553 23.1298 10.5725 23.248 10.5843 23.3781L10.608 23.5672C10.6198 23.6972 10.738 23.78 10.868 23.7682C10.9626 23.7563 11.0453 23.6854 11.069 23.6027C11.5064 23.5436 12.0146 23.3426 11.991 22.7634V22.5388V22.527C11.9201 19.6664 11.3645 17.4914 10.0169 17.4677Z" fill="#0E3368"/>
</g>
</g>
<g opacity="0.1">
<g opacity="0.1">
<path opacity="0.1" d="M21.022 19.6545C20.7974 14.276 18.3032 13.0585 18.1968 13.0112C18.1968 13.0112 18.3387 13.1294 18.9652 13.9924C19.6153 14.8907 20.6319 16.522 20.7619 19.6663C20.2182 19.7372 19.8045 20.1982 19.8045 20.7656C19.8045 21.3803 20.3009 21.8768 20.9156 21.8768C21.5303 21.8768 22.0267 21.3803 22.0267 20.7656C22.0267 20.1864 21.5894 19.7136 21.022 19.6545Z" fill="#0E3368"/>
</g>
</g>
</g>
</svg>
