<svg width="28" height="43" viewBox="0 0 28 43" fill="none" xmlns="http://www.w3.org/2000/svg">
<path d="M20.2574 30.7554C21.4604 31.0104 22.8919 30.7085 23.8664 29.9636C25.634 28.6081 26.7026 26.1253 26.1515 23.9041C25.6608 21.9514 23.7454 20.5086 21.7359 20.4013C19.7264 20.2939 17.7371 21.4145 16.6416 23.0989C15.4655 24.8972 15.3579 27.521 16.8567 29.0644C14.0004 26.1387 9.32272 33.5738 6.00267 32.48C5.28355 32.2452 4.64508 31.8224 4.06038 31.3527C3.20012 30.6682 2.41379 29.8361 2.05087 28.8027C1.68795 27.7693 1.84253 26.4943 2.64902 25.7495C1.97695 28.5343 2.03071 31.4936 2.8036 34.2516C3.02538 35.0367 3.30765 35.8218 3.80498 36.4727C4.36953 37.2176 5.1693 37.741 5.95562 38.251C9.41008 40.4856 12.4613 42.3578 16.7021 41.9887C18.3083 41.8478 19.471 41.0224 20.58 39.8548C21.7561 38.6133 22.5693 37.1505 22.2534 35.4662C21.9107 33.7886 21.0773 32.2519 20.2574 30.7554Z" fill="#FD4142"/>
<path d="M12.5016 8.26881C14.6321 8.08763 18.8393 6.61133 17.9387 3.75269C16.8163 0.189458 11.6077 2.93402 9.90068 4.45058C8.32802 5.85305 7.11157 7.71184 6.69488 9.77865C6.27819 11.8455 6.70832 14.1136 8.04575 15.7442C10.8954 14.5229 12.7839 11.3556 12.5016 8.26881Z" fill="#FD4142"/>
<path d="M3.89233 12.1139C3.89905 12.1139 3.9125 12.1139 3.92594 12.1072C3.91922 12.1072 3.90578 12.1139 3.89233 12.1139Z" fill="#242952"/>
<path d="M25.7012 29.769C26.8168 28.3464 27.8787 26.1051 27.4687 23.7766C27.2469 22.5553 26.4875 21.6628 25.6407 20.7972C25.224 20.3677 24.0747 20.0724 23.7051 19.9047C22.9188 19.5088 22.2333 17.5762 23.4027 17.0125C22.1392 16.3146 20.5732 17.905 21.6015 19.388C17.2465 19.3678 13.7248 21.844 14.6791 25.7226C14.9144 26.6688 15.2907 27.521 15.9762 28.2323C15.9225 27.7961 16.0703 26.7158 16.1039 26.3266C16.4131 26.6822 18.4024 28.1988 18.5234 26.9842C18.5704 26.5144 16.3392 25.8635 16.5005 24.1792C16.6013 23.0988 17.9723 21.9111 18.8191 21.4951C19.9885 20.918 21.6217 21.0186 22.8112 21.4212C24.1621 21.8843 25.2307 22.5687 25.6877 24.0517C27.1394 28.749 22.4147 30.279 19.182 30.326C26.9781 42.6731 4.9206 45.2835 2.68258 31.6949C2.01051 27.6082 4.02673 22.3674 6.70831 18.8377C8.57668 16.3884 11.8295 15.3282 13.2879 12.6507C13.7315 11.8388 13.6576 9.71826 14.1415 9.18143C14.2624 9.04722 15.0891 9.00696 15.7881 8.73854C16.7424 8.20842 18.6511 7.47027 19.0342 4.50426C19.0476 4.37006 19.0611 4.20901 19.1619 4.3365C20.459 5.94029 20.8555 8.04066 20.7547 10.0538C20.748 10.0135 20.7412 9.96655 20.7345 9.92628C20.4993 11.3288 17.3002 15.657 15.741 15.147C16.3526 15.5429 17.2196 15.6033 17.9589 15.5966C17.3338 16.4018 15.8015 16.7575 14.6254 16.4488C15.4789 16.8514 16.0031 17.1534 16.9911 16.9588C17.2263 16.9185 17.9589 16.5696 18.1 16.4689C20.291 15.2544 22.1862 12.2078 22.1862 9.76523C22.3341 8.66473 21.9443 7.02067 21.7158 6.3295C21.1445 4.45729 19.6592 2.35022 17.1591 1.02826C14.9412 -0.052113 11.6212 -0.743286 8.28097 1.38392C7.13172 2.14891 6.15721 3.18902 5.45825 4.40361C3.99985 7.12804 3.97969 12.1407 6.39244 15.194C4.29556 15.5563 2.61538 14.6303 1.69463 13.1674C1.89626 12.2145 3.3681 12.1944 3.89232 12.1072C3.83855 12.1139 3.89904 12.0803 3.9528 12.0938C3.83855 12.0535 3.99985 11.926 3.83855 11.7113C3.95952 11.5167 1.31827 11.1006 0.491616 12.3219C-1.73967 15.5966 4.24852 17.2608 5.98247 17.0796C4.44342 19.4752 3.00518 21.4682 2.02395 23.8303C1.24434 25.1791 0.289995 29.4939 1.19058 33.1913C3.39498 43.8005 18.3621 46.6994 22.9053 37.4189C23.0599 37.1035 23.1271 36.7613 23.1338 36.4056V36.3989C23.1943 34.8488 22.9053 33.2651 22.2333 31.8828C23.3623 31.5942 24.8812 30.5877 25.7012 29.769ZM6.24458 8.11447C7.37367 -0.340661 20.6472 1.08195 16.8432 6.15503C16.1577 7.00054 15.5259 7.11462 14.0541 7.70513C13.6777 7.91316 12.5554 8.11447 12.4008 8.28223C12.4882 8.73854 12.421 8.85262 12.421 9.58405C11.7825 10.7718 10.9491 14.3954 8.96649 14.3552C6.74864 14.3082 6.02952 10.3356 6.24458 8.11447Z" fill="#242952"/>
<path d="M25.3113 20.6227C25.3113 20.5959 25.3651 20.6563 25.3113 20.6227V20.6227Z" fill="#242952"/>
<path d="M23.1339 36.5532C23.1339 36.5063 23.1338 36.4526 23.1406 36.4056C23.1338 36.4526 23.1339 36.5063 23.1339 36.5532Z" fill="#242952"/>
<path d="M19.1149 10.7718C19.0745 10.5772 16.8634 9.4297 16.8029 10.1746C16.6953 11.4965 19.2896 11.6643 19.1149 10.7718Z" fill="#242952"/>
<path d="M19.8407 24.0047C19.8945 24.0584 18.0127 23.1727 18.0261 23.1727C17.2935 23.1592 18.2277 24.8435 19.0476 24.857C19.3098 24.8637 20.2439 24.3939 19.8407 24.0047Z" fill="#242952"/>
</svg>
