<svg width="22" height="28" viewBox="0 0 22 28" fill="none" xmlns="http://www.w3.org/2000/svg">
<path d="M1.14579 5.60621C0.512711 5.60621 0 6.11892 0 6.75199C0 7.38507 0.512711 7.89778 1.14579 7.89778H1.76729V25.3797C1.76729 26.8264 2.9397 27.9988 4.3864 27.9988H6.43261V5.60621H1.14579Z" fill="#41B9EA"/>
<path d="M11.7206 5.60621H6.43262V28H8.4904C9.93711 28 11.1095 26.8275 11.1095 25.3808V7.89778H11.7206C12.3537 7.89778 12.8664 7.38507 12.8664 6.75199C12.8664 6.11892 12.3537 5.60621 11.7206 5.60621Z" fill="#00A7DA"/>
<path d="M8.66403 3.36905C8.66403 4.13407 8.04369 4.75441 7.27867 4.75441C6.51366 4.75441 5.89331 4.13407 5.89331 3.36905C5.89331 2.60403 6.51366 1.98369 7.27867 1.98369C8.04484 1.98369 8.66403 2.60403 8.66403 3.36905Z" fill="#F05D22"/>
<path d="M6.18611 0.991857C6.18611 1.54045 5.74168 1.98487 5.19425 1.98487C4.64682 1.98487 4.20239 1.54045 4.20239 0.991857C4.20239 0.444426 4.64682 0 5.19425 0C5.74168 0 6.18611 0.443269 6.18611 0.991857Z" fill="#F05D22"/>
<path d="M9.75075 7.83185H3.1156V17.4356H9.75075V7.83185Z" fill="white"/>
<path d="M3.1156 17.4357V24.5071C3.1156 25.9538 4.28801 26.3404 5.73471 26.3404H7.13164C8.57834 26.3404 9.75075 25.9527 9.75075 24.5071V17.4357H3.1156Z" fill="#F05D22"/>
<path d="M4.20123 23.0153C4.20123 23.7803 4.82158 24.4006 5.58659 24.4006C6.35161 24.4006 6.97195 23.7803 6.97195 23.0153C6.97195 22.2503 6.35161 21.6299 5.58659 21.6299C4.82158 21.6299 4.20123 22.2503 4.20123 23.0153Z" fill="white"/>
<path d="M6.67908 20.6369C6.67908 21.1855 7.1235 21.6299 7.67093 21.6299C8.21952 21.6299 8.66395 21.1855 8.66395 20.6369C8.66395 20.0894 8.21952 19.6439 7.67093 19.6439C7.1235 19.645 6.67908 20.0894 6.67908 20.6369Z" fill="white"/>
<path d="M19.2283 24.6193C18.5085 23.4828 18.1636 22.0731 18.1636 22.0731C17.9807 22.7872 17.7134 23.4909 17.372 24.1437C16.8859 25.073 15.9785 26.1852 16.7771 27.2141C17.3905 28.0058 18.5073 28.1609 19.2793 27.5012C20.2329 26.6852 19.7954 25.5163 19.2283 24.6193Z" fill="#F05D22"/>
<path d="M16.2343 7.88146V9.13604H15.2887C14.8489 9.13604 14.4924 9.4925 14.4924 9.9323C14.4924 10.3721 14.8501 10.7286 15.2887 10.7286H16.203V18.0743L18.1497 21.1645V5.95099C17.0907 5.96024 16.2343 6.82016 16.2343 7.88146Z" fill="#41B9EA"/>
<path d="M21.0106 9.13508H20.0963V7.8805C20.0963 6.81342 19.2318 5.94887 18.1647 5.94887C18.1601 5.94887 18.1543 5.95003 18.1485 5.95003V21.1635L20.0952 18.0734V13.959V10.7276H21.0095C21.4493 10.7276 21.8057 10.3711 21.8057 9.93134C21.8069 9.49155 21.4504 9.13508 21.0106 9.13508Z" fill="#00A7DA"/>
<path d="M19.4482 12.0424C19.4482 11.3248 18.8672 10.7438 18.1497 10.7438C17.4333 10.7438 16.8511 11.3248 16.8511 12.0424V14.717H19.4482V12.0424Z" fill="white"/>
<path d="M16.8511 14.717V16.2991C16.8511 17.0167 17.4333 17.5976 18.1497 17.5976C18.8672 17.5976 19.4482 17.0167 19.4482 16.2991V14.717H16.8511Z" fill="#F05D22"/>
</svg>
