<svg width="34" height="28" viewBox="0 0 34 28" fill="none" xmlns="http://www.w3.org/2000/svg">
<path d="M8.90909 14C8.90909 13.6625 9.04318 13.3387 9.28186 13.1C9.52055 12.8614 9.84427 12.7273 10.1818 12.7273H21.6364V4.45455C21.6364 1.90909 18.9485 0 16.5455 0H4.45455C3.27351 0.00126336 2.14122 0.470986 1.3061 1.3061C0.470986 2.14122 0.00126336 3.27351 0 4.45455V23.5455C0.00126336 24.7265 0.470986 25.8588 1.3061 26.6939C2.14122 27.529 3.27351 27.9987 4.45455 28H17.1818C18.3628 27.9987 19.4951 27.529 20.3303 26.6939C21.1654 25.8588 21.6351 24.7265 21.6364 23.5455V15.2727H10.1818C9.84427 15.2727 9.52055 15.1386 9.28186 14.9C9.04318 14.6613 8.90909 14.3375 8.90909 14Z" fill="white"/>
<path d="M32.7179 13.1004L26.3543 6.73675C26.1136 6.50814 25.7932 6.38257 25.4613 6.38682C25.1295 6.39107 24.8124 6.5248 24.5777 6.75949C24.343 6.99418 24.2093 7.31127 24.205 7.64315C24.2008 7.97503 24.3263 8.29544 24.5549 8.53606L28.7454 12.7273H21.6364V15.2728H28.7454L24.5549 19.464C24.4318 19.581 24.3333 19.7215 24.2653 19.8772C24.1973 20.0329 24.1611 20.2006 24.1589 20.3704C24.1568 20.5403 24.1886 20.7089 24.2526 20.8662C24.3166 21.0236 24.4115 21.1666 24.5316 21.2867C24.6517 21.4068 24.7947 21.5017 24.952 21.5657C25.1094 21.6297 25.278 21.6615 25.4478 21.6593C25.6177 21.6572 25.7854 21.621 25.9411 21.553C26.0968 21.485 26.2372 21.3865 26.3543 21.2633L32.7179 14.8997C32.9564 14.661 33.0904 14.3374 33.0904 14C33.0904 13.6626 32.9564 13.339 32.7179 13.1004Z" fill="white"/>
</svg>
