<svg width="40" height="42" viewBox="0 0 40 42" fill="none" xmlns="http://www.w3.org/2000/svg">
<path d="M0.799744 19.3584V33.057H17.6694L17.6702 33.0578L25.4079 27.3552V19.3584H0.799744Z" fill="#E3F2FF"/>
<path d="M37.8136 26.8228C39.3921 29.558 38.4708 33.0732 35.7121 34.6662L30.9299 37.4272L25.188 27.4823C31.571 23.7969 29.5719 24.9513 29.9702 24.7213C32.7164 23.1358 36.228 24.0766 37.8136 26.8228Z" fill="#FE73B1"/>
<path d="M25.188 27.4823L30.9299 37.4273L25.7671 40.4082C23.0208 41.9937 19.5093 41.0529 17.9237 38.3066C16.3277 35.5346 17.2997 32.0375 20.0252 30.4632L25.188 27.4823Z" fill="#FEC459"/>
<path d="M20.4863 11.1557L24.7516 16.8426C25.1774 17.4111 25.4079 18.1017 25.4079 18.8113V19.3584H0.799744V18.8113C0.799744 18.1017 1.03025 17.4111 1.45599 16.8426L5.72137 11.1557V7.8746H20.4863V11.1557Z" fill="#ED5151"/>
<path d="M22.1268 2.46079V6.23407C22.1268 7.14043 21.3926 7.87461 20.4862 7.87461H5.72135C4.81499 7.87461 4.08081 7.14043 4.08081 6.23407V2.46079C4.08081 1.55443 4.81499 0.820251 5.72135 0.820251H20.4862C21.3926 0.820251 22.1268 1.55443 22.1268 2.46079Z" fill="#57555C"/>
<path d="M17.6702 33.0577L17.6694 33.0569H0.799744V34.6975C0.799744 36.5094 2.26884 37.9785 4.08083 37.9785H17.7473L17.7481 37.9777L17.6702 33.0577Z" fill="#ED5151"/>
<path d="M9.02293 11.976C9.47574 11.976 9.84316 11.6085 9.84316 11.1558C9.84316 10.703 9.47566 10.3355 9.02293 10.3355C8.57012 10.3355 8.2027 10.703 8.2027 11.1558C8.20262 11.6085 8.57012 11.976 9.02293 11.976Z" fill="white"/>
<path d="M16.4053 25.6744H13.9446V23.2137C13.9446 22.7607 13.5772 22.3934 13.1243 22.3934C12.6714 22.3934 12.3041 22.7608 12.3041 23.2137V25.6744H9.84333C9.39036 25.6744 9.0231 26.0418 9.0231 26.4947C9.0231 26.9477 9.39044 27.315 9.84333 27.315H12.3041V29.7758C12.3041 30.2287 12.6714 30.596 13.1243 30.596C13.5772 30.596 13.9446 30.2286 13.9446 29.7758V27.315H16.4053C16.8583 27.315 17.2256 26.9476 17.2256 26.4947C17.2257 26.0418 16.8584 25.6744 16.4053 25.6744Z" fill="white"/>
<path d="M29.5805 24.011L26.2486 25.9346V18.8113C26.2486 17.9307 25.9574 17.0568 25.4283 16.3505L21.327 10.8823V8.55372C22.2816 8.2151 22.9675 7.3034 22.9675 6.23396V2.46077C22.9675 1.10389 21.8636 0 20.5067 0H5.74186C4.38498 0 3.281 1.10389 3.281 2.46077V6.23405C3.281 7.30332 3.96687 8.21518 4.92155 8.55381V10.8823L0.819902 16.351C0.291129 17.0569 0 17.9307 0 18.8113V34.6975C0 36.959 1.83988 38.7988 4.10132 38.7988H17.2839C19.1231 41.8818 23.089 42.9135 26.1977 41.1186L36.1428 35.3766C39.2563 33.5787 40.3669 29.5705 38.5444 26.4127C36.7312 23.2721 32.7218 22.1972 29.5805 24.011ZM17.1869 32.2366H1.64046V20.1787H24.6081V26.8816L19.6354 29.7529C18.5986 30.3518 17.7606 31.2044 17.1869 32.2366ZM4.92155 2.46077C4.92155 2.00845 5.28954 1.64054 5.74178 1.64054H20.5067C20.959 1.64054 21.327 2.00853 21.327 2.46077V6.23405C21.327 6.68637 20.959 7.05428 20.5067 7.05428H5.74186C5.28954 7.05428 4.92163 6.68628 4.92163 6.23405C4.92155 6.23405 4.92155 2.46077 4.92155 2.46077ZM6.39803 11.6479C6.5045 11.5059 6.56209 11.3332 6.56209 11.1557V8.6949H19.6864V10.3354H12.304C11.8511 10.3354 11.4838 10.7028 11.4838 11.1557C11.4838 11.6086 11.8511 11.9759 12.304 11.9759H20.0966L24.1155 17.3343C24.3782 17.685 24.5414 18.1046 24.5907 18.5381H1.65793C1.70715 18.1046 1.87031 17.6851 2.13273 17.3348L6.39803 11.6479ZM1.64046 34.6975V33.8691H16.5435C16.2834 34.9326 16.2851 36.0686 16.5829 37.1583H4.10132C2.74444 37.1583 1.64046 36.0544 1.64046 34.6975ZM25.3775 39.6978C23.0235 41.0571 20.0154 40.2532 18.6551 37.8975C17.2884 35.5191 18.1167 32.5246 20.4559 31.1735L24.9083 28.6028L29.8299 37.1271L25.3775 39.6978ZM35.3225 33.9559L31.2507 36.3069L26.329 27.7824L30.4009 25.4316C32.7565 24.0717 35.7635 24.877 37.1237 27.2328C38.49 29.6005 37.6591 32.6066 35.3225 33.9559Z" fill="white"/>
</svg>
