<svg width="47" height="42" viewBox="0 0 47 42" fill="none" xmlns="http://www.w3.org/2000/svg">
<path d="M10.6488 22.8508C12.8998 24.7743 20.2103 21.7304 19.1666 19.546C18.9978 19.5767 18.7881 19.5716 18.6755 19.6125C18.2151 19.3465 17.7189 20.5282 17.7547 20.6152C17.238 20.6919 17.4017 20.7943 17.0487 21.0091C16.9668 20.8761 17.1971 20.8761 17.1612 20.7533C17.0947 20.8198 15.9795 21.6384 15.9283 21.4286C15.9437 21.5719 15.9335 21.5923 15.8925 21.4849C15.959 21.4951 15.3503 21.9965 15.1047 21.93C15.0842 22.3137 13.7592 22.4364 12.9254 22.4108C12.7361 22.4057 11.7078 22.1244 11.4316 22.1346C11.3497 22.1397 10.7205 21.8021 10.7614 21.7867C9.62057 22.2267 10.7358 22.5643 10.6488 22.8508Z" fill="#454198"/>
<path d="M29.8126 38.6586C30.7846 38.6381 34.601 37.1699 31.7566 37.0727C30.2014 37.0215 28.9992 37.7889 27.3724 36.7146C26.4976 36.1365 25.2902 34.1976 24.7019 34.2437C24.6661 34.4074 24.5791 34.6018 24.5842 34.7143C24.2824 34.9701 25.4539 36.4025 25.4539 36.3769C25.5562 36.3156 25.7455 36.5509 25.7609 36.5816C25.6228 36.643 25.6074 36.4179 25.4846 36.4588C26.3901 37.3592 27.1831 37.615 27.5923 38.234C27.577 38.2493 29.2294 38.234 29.8126 38.6586Z" fill="#454198"/>
<path d="M45.912 31.0054C46.5208 34.1362 41.7682 35.2106 39.6963 34.1772C39.6963 35.3282 39.0108 36.377 38.7499 36.9704C38.489 37.0881 38.4378 37.2313 38.4992 37.6201C38.4941 37.5741 38.489 37.5331 38.4788 37.4871C38.5095 37.5689 38.535 37.6559 38.5606 37.7378C38.4941 37.7736 36.9543 38.4796 36.898 39.1958C37.4505 39.9222 36.8826 39.3441 37.0105 39.8301C37.0054 39.8046 36 40.5 35 41C34.5 41.2012 34 41.5 33.6443 41.4007C33 41.5 33.1021 41.4007 32.5189 41.2012C32.6058 41.3086 32.6928 41.416 32.7798 41.5183C32.2733 41.6411 32.171 41.3649 32.2119 41.9174C32.1352 41.9225 31.4241 41.7537 31.7003 41.9992C31.4497 42.0248 29.6336 41.4109 29.6233 41.3291C29.6336 41.3086 29.6336 41.3137 29.6284 41.3444C29.4494 41.2114 29.1987 40.8328 29.081 40.5361C29.3522 40.1985 29.9456 40.4543 30.1963 40.2445C30.14 40.2292 30.1042 40.1627 30.1605 40.1473C30.6823 40.3417 31.1069 40.3622 31.7361 40.0859C31.9305 39.5897 34.1457 38.986 34.8875 38.3721C35.706 37.6917 36.279 36.7453 36.6933 35.9677C38.0951 33.3535 37.9058 29.4195 37.21 26.9128C36.8417 26.9025 36.0692 27.455 35.752 27.6801C35.8185 27.7108 35.8902 27.7466 35.9567 27.7773C34.9796 29.2404 30.4112 28.6777 29.3726 28.3963C27.7458 27.9513 26.3236 26.8053 25.1777 25.4854C25.1061 25.5929 25.0651 25.6133 25.0549 25.552C24.6405 27.895 25.2237 29.926 24.1852 31.6602C22.3435 29.9208 21.039 33.2154 23.4332 33.8242C22.9779 34.7041 22.3998 35.3589 21.9854 35.9114C21.2539 36.0496 22.3231 38.3005 22.1645 38.3772C22.2208 38.9553 22.0673 39.0986 22.0673 39.9734C21.2846 39.5641 21.172 38.321 20.6809 37.6968C20.7321 38.3159 20.5377 36.8732 20.5019 36.7453C20.2768 36.776 20.4507 36.7402 20.4456 36.909C19.6168 36.6788 18.1179 37.0778 16.6804 36.7197C14.8591 36.2644 12.9407 35.0929 12.3933 33.154C12.2808 32.755 12.2399 30.0948 12.5775 30.0948C12.598 30.1101 12.5928 30.1101 12.5621 30.0999C12.7412 29.9413 13.1556 29.8083 13.5341 29.8185C13.703 30.1817 13.3244 30.591 13.5341 30.8877C13.5546 30.8519 13.6262 30.8059 13.6365 30.8621C13.3807 31.343 13.3807 31.8495 13.8667 32.3867C14.1122 32.4992 20.4251 36.8118 19.5606 33.9828C19.5299 34.1004 19.4992 34.2232 19.4685 34.3409C18.7369 33.067 16.7878 33.2921 15.6777 32.3918C14.9205 31.7779 13.8564 30.2482 13.749 29.3428C13.703 28.9591 13.7592 27.1685 14.3783 27.0253C14.3424 27.0304 18.4914 32.0285 18.3993 30.9133C18.3174 31.123 18.3379 31.1128 18.4555 30.8826C18.0565 31.7881 18.6397 30.8059 18.5118 31.4044C18.5118 31.4044 18.7983 27.7927 18.9108 26.9895C19.1564 25.2297 19.6168 23.4954 20.2461 21.8788C20.42 21.5412 21.1976 19.5562 21.3613 18.5689C21.2795 18.6456 21.2027 18.7224 21.1209 18.8042C21.0697 17.2234 22.3231 15.0697 21.699 13.6987C21.346 12.9108 20.1284 12.5681 19.4531 12.0053C18.563 11.2635 17.6831 10.2148 17.1868 9.21722C14.1634 11.8519 12.0761 13.4838 8.12164 13.8675C7.84539 13.7089 7.66633 13.7191 7.28776 13.9238C7.33381 13.8982 7.37985 13.8726 7.42589 13.847C7.34915 13.9084 7.27242 13.9698 7.19056 14.0261C7.02174 13.9186 6.59713 13.668 6.68922 13.7345C6.47435 13.4838 5.973 13.2587 5.40515 13.1922C5.44096 13.2331 5.42561 13.2382 5.35911 13.2127C5.55863 13.448 5.11867 15.085 5.07774 15.085C5.24145 15.2027 5.13401 15.612 5.14936 15.9291C5.20052 17.1365 5.72233 18.1187 5.89627 19.28C6.01905 20.0883 5.63536 21.6588 6.0702 22.3443C6.47947 22.9941 7.25707 22.4927 7.82492 22.9224C8.78669 23.6438 8.84808 24.4879 10.3112 25.0711C10.8739 25.291 13.4779 26.1658 13.5188 26.2989C13.5137 26.3244 13.5086 26.3193 13.5086 26.2835C13.7644 26.4114 13.9792 26.6314 14.3271 26.9128C14.1173 27.3783 13.2732 27.2657 12.9356 27.4294C12.9765 27.4346 13.1095 27.5215 12.9919 27.5318C10.4647 26.6672 8.38766 27.1737 6.0702 24.0377C4.09039 21.3621 1.69109 15.5352 3.56347 12.3634C2.24871 12.9159 0.0131046 5.1604 1.28182 4.78183C1.30228 4.79206 1.29717 4.79206 1.26647 4.79206C1.38925 4.54138 1.68597 4.26002 2.00315 4.00934C2.41241 4.31117 2.18732 5.04273 2.41753 5.38037C2.4738 5.25248 2.5045 5.23202 2.51473 5.3241C2.32544 5.97381 2.39195 6.57235 2.6989 7.2988C3.95227 10.7724 10.3624 2.30067 11.7845 1.62027C16.6804 -0.712537 20.5837 2.34159 22.6658 7.37553C23.4537 9.27861 23.7657 9.72368 25.0805 10.9515C26.3492 12.1332 27.1217 12.7318 26.6459 14.5632C26.3287 15.7808 25.8888 15.924 25.2442 16.277C30.2628 14.6553 36.0027 18.5433 38.0746 23.0708C38.7294 24.5032 38.8369 26.4881 39.374 27.7364C40.699 30.8212 42.556 27.3067 44.6842 27.982C44.7712 28.0587 44.8479 28.1405 44.9144 28.2377C44.587 28.115 44.894 28.4117 44.894 28.4117C43.8094 29.2558 42.3054 32.1564 39.9112 31.2868C39.5377 32.7703 42.4333 32.3713 43.1648 31.9927C44.2443 31.4402 45.1498 29.6037 46.1269 30.4426C45.9836 30.724 46.1422 30.4682 46.1422 30.6831C46.0552 30.7138 45.7688 31.0668 45.912 31.0054Z" fill="#454198"/>
<path d="M25.5768 31.7727C26.9734 32.0746 26.6153 30.3608 27.8277 30.6933C28.9532 31.0002 28.0937 32.7038 28.9941 32.4173C28.9788 32.4122 28.9788 32.4071 28.989 32.4173C29.168 32.4736 29.4954 31.8546 29.5364 31.7472C29.3113 31.7267 29.4034 31.7011 29.2243 31.6141C29.4034 31.4504 29.342 31.4095 29.4648 31.2714C29.4238 31.3277 29.3266 31.0258 29.3266 31.0514C29.388 30.944 29.4289 31.2202 29.4903 31.2049C29.4085 31.1281 29.4238 31.0821 29.5364 31.0616C29.4801 30.8979 29.0248 30.1203 29.1425 30.0692C29.0095 30.1152 28.989 30.1101 29.0862 30.0436C29.0862 30.4375 28.2523 29.4144 28.3495 29.5729C28.1551 29.5985 27.2445 29.4041 26.4618 29.9208C26.5027 29.885 25.0703 31.609 25.5768 31.7727Z" fill="#454198"/>
<path d="M32.0124 33.0108C33.1123 34.1107 33.1839 32.3252 34.0587 32.8215C34.4782 33.0619 33.7825 35.2208 34.7545 34.3255C34.7851 34.3204 35.133 33.86 35.1637 33.7935C34.8977 33.7525 35.0921 33.7884 34.867 33.6656C35.0921 33.553 34.9796 33.5479 35.1791 33.4661C35.1177 33.5121 35.1228 33.2307 35.1177 33.2768C35.2251 33.2 35.1433 33.4354 35.2149 33.4251C35.1688 33.3433 35.2046 33.3126 35.3121 33.3382C35.3274 33.1949 35.2098 32.4276 35.3479 32.4224C35.2046 32.4224 35.1893 32.4071 35.3018 32.3815C35.174 32.7345 34.6828 31.5528 34.734 31.7369C34.5396 31.742 34.0024 31.43 33.2504 31.7267C33.0304 31.8188 32.1659 32.9954 32.0124 33.0108Z" fill="#454198"/>
<path d="M14.3833 14.4967C13.8053 15.1413 13.1863 17.4178 14.1276 17.2541C14.2043 17.1211 14.2964 16.9727 14.3322 16.8807C14.2964 16.9011 14.588 16.2412 14.5982 16.2105C14.3475 16.1849 14.5112 16.19 14.3015 16.0826C14.5317 15.9445 14.4089 15.9496 14.6289 15.9035C14.6084 15.9342 14.5726 15.6836 14.5624 15.7347C14.7517 15.6989 14.5777 15.8729 14.6698 15.8729C14.6443 15.9496 15.0689 15.3562 14.9461 15.3817C14.9717 15.3459 15.1558 15.4124 15.1968 15.4687C15.1251 15.3562 15.1251 15.3459 15.1968 15.4329C15.1865 15.4278 15.0331 15.1669 15.0944 15.1873C15.2581 15.1771 15.3349 15.0032 15.4219 15.2385C15.3963 15.1515 15.4014 15.1515 15.4372 15.2385C15.4423 15.1822 15.4525 15.1873 15.4679 15.2487C15.4474 15.1259 15.4423 15.2027 15.4525 15.0646C15.4167 15.0594 15.5907 15.1413 15.5139 15.0287C15.427 14.6195 16.8543 15.8831 16.9361 15.9035C17.4477 16.0263 18.4811 16.5533 17.6472 14.9878C17.1305 14.0158 15.253 13.54 14.3833 14.4967Z" fill="#454198"/>
<path d="M10.1731 17.2951C10.0452 17.4434 12.5673 18.1801 10.7716 16.5123C8.30583 14.2205 8.36722 18.528 7.96307 18.6456C8.02446 18.6968 8.24444 18.973 8.56674 18.7786C8.64348 18.7837 8.93507 18.2773 8.96065 18.1903C8.75091 18.1903 8.80206 18.1903 8.64859 18.1085C8.85834 17.9601 8.73044 17.9806 8.92996 17.8783C8.92996 17.8936 8.80206 17.7197 8.8123 17.7555C8.97089 17.6736 8.8788 17.8629 8.96577 17.8424C8.91461 17.7708 8.94531 17.7452 9.05274 17.7657C9.05274 17.7913 9.17552 17.3309 9.01693 17.3871C9.03739 17.3462 9.21644 17.3923 9.2676 17.4178C9.15505 17.3564 9.14994 17.3513 9.25225 17.4025C9.19086 17.382 9.05785 17.2439 9.04762 17.2439C9.07832 17.2695 9.08343 17.2695 9.06809 17.2439C9.08343 17.2388 9.21644 17.1979 9.14994 17.1672C9.1704 17.2899 9.15505 17.116 9.28806 17.3002C9.24202 17.2234 9.24202 17.2285 9.2983 17.3002C9.28295 17.2541 9.28806 17.2592 9.31876 17.3155C9.27783 17.1876 9.28295 17.2951 9.24714 17.1467C9.23179 17.1467 9.3648 17.2183 9.27783 17.116C9.28295 17.1467 9.28806 17.1467 9.28806 17.1262C9.33411 17.116 9.99404 17.3513 10.1731 17.2951Z" fill="#454198"/>
<path d="M7.42076 22.5285C7.19055 22.6411 6.96033 22.7587 6.70966 22.7434C6.15716 22.7127 5.83998 22.0732 5.82463 21.5207C5.81951 21.2649 5.85021 21.004 5.96275 20.7738C6.04461 20.605 6.15716 20.4668 6.28505 20.3492C6.50503 20.8915 6.7557 21.4184 7.03196 21.9351C7.14962 22.1448 7.26728 22.3546 7.42076 22.5285Z" fill="#C53DB8"/>
<path d="M24.1955 31.65C24.042 31.8853 24.1699 32.3048 23.8374 32.4225C23.7197 32.8522 23.6788 33.1336 23.5713 33.5531C23.5253 33.6298 23.4895 33.7219 23.4383 33.814C23.2695 33.773 23.1058 33.6963 22.9677 33.5991C22.4766 33.2615 21.7757 32.3662 22.0929 31.7472C22.2822 31.3737 22.7272 31.164 23.1467 31.1947C23.5611 31.2305 23.9243 31.3942 24.1955 31.65Z" fill="#C53DB8"/>
<path d="M36.1562 37.1188C36.0232 37.3694 35.8646 37.4513 35.6855 37.4564C35.7469 37.3643 35.8134 37.2722 35.8748 37.175C35.9874 36.9909 36.105 36.8169 36.2227 36.6276C36.2534 36.7965 36.2381 36.9653 36.1562 37.1188Z" fill="#C53DB8"/>
<path d="M9.07317 21.3979C9.02201 22.242 8.38254 22.1551 7.72771 22.3955C7.6254 22.4313 7.52308 22.4825 7.42588 22.5336C7.19567 22.6462 6.96546 22.7638 6.71479 22.7485C6.16228 22.7178 5.8451 22.0783 5.82976 21.5258C5.82464 21.27 5.85533 21.0091 5.96788 20.7789C6.04973 20.6101 6.16228 20.472 6.29018 20.3543C6.83245 19.8888 7.7226 19.8683 8.35696 20.2776C8.73553 20.518 9.09875 20.917 9.07317 21.3979Z" fill="#C53DB8"/>
<path d="M36.1562 37.1187C36.0232 37.3694 35.8646 37.4513 35.6855 37.4564C35.4758 37.4717 35.2302 37.3848 34.954 37.3592C34.6931 37.3336 34.4066 37.4001 34.1764 37.2773C33.8183 37.088 33.808 36.5662 33.9717 36.1979C34.0485 36.024 34.1508 35.8654 34.294 35.7477C34.8363 35.3129 35.6702 35.5738 36.0334 36.157C36.1204 36.2951 36.192 36.4639 36.2227 36.6327C36.2534 36.7964 36.238 36.9653 36.1562 37.1187Z" fill="#C53DB8"/>
<path d="M19.6833 18.6968C20.2768 18.62 21.3102 18.1494 21.3153 17.4536C21.3153 17.0341 21.0186 16.6453 20.6298 16.4765C19.8215 16.1338 18.9313 16.4356 18.5272 17.1876C18.3993 17.4229 18.3123 17.6992 18.3686 17.9601C18.476 18.5075 19.136 18.7684 19.6833 18.6968Z" fill="#C53DB8"/>
<path d="M24.6968 32.801C24.7019 33.0721 24.6508 33.3535 24.482 33.5581C24.2415 33.86 23.8271 33.9163 23.4435 33.8191C23.2746 33.7781 23.1109 33.7014 22.9728 33.6042C22.4817 33.2665 21.7808 32.3713 22.098 31.7523C22.2873 31.3788 22.7324 31.1691 23.1519 31.1998C23.5611 31.2305 23.9243 31.3942 24.1955 31.65C24.5024 31.9416 24.6866 32.3457 24.6968 32.801Z" fill="#C53DB8"/>
</svg>
