<svg width="28" height="28" viewBox="0 0 28 28" fill="none" xmlns="http://www.w3.org/2000/svg">
<path d="M25.7419 3.3871C25.5161 2.70968 25.0645 2.03226 24.6129 1.58065C24.1613 1.12903 23.4839 0.67742 22.8064 0.451614C22.129 0.225807 21.4516 0 20.7742 0H5.41935C4.06451 0 2.48387 0.67742 1.58064 1.58065C0.677419 2.70968 0 4.06452 0 5.41936V20.7742C0 22.129 0.677419 23.7097 1.58064 24.6129C2.70968 25.7419 4.06451 26.1935 5.41935 26.1935H9.25806C8.80645 25.5161 8.12903 24.8387 7.90322 23.9355H5.41935C4.51613 23.9355 3.6129 23.4839 3.16129 23.0323C2.48387 22.3548 2.25806 21.6774 2.25806 20.7742V6.54839H24.1613V7.90323C24.8387 8.35484 25.7419 8.80645 26.4194 9.25807V5.41936C26.1935 4.74194 26.1935 4.06452 25.7419 3.3871ZM2.48387 4.51613C2.93548 3.16129 4.06452 2.25806 5.64516 2.25806H21C22.3548 2.25806 23.7097 3.16129 24.1613 4.51613H2.48387Z" fill="#F26513"/>
<path d="M5.41934 8.80646H11.5161C10.6129 9.48388 9.93547 10.1613 9.25805 11.0645H6.54837V18.2903C6.54837 18.5161 6.54837 18.9677 6.54837 19.1936V19.871C6.54837 20.5484 6.77418 21.4516 6.99998 22.129H5.41934C5.19353 22.129 4.74192 21.9032 4.74192 21.9032C4.51611 21.4516 4.51611 21 4.51611 20.7742V9.93549C4.51611 9.70968 4.74192 9.25807 4.74192 9.25807C4.96773 8.80646 5.19353 8.80646 5.41934 8.80646Z" fill="#D9320D"/>
<path d="M25.516 20.3226C25.2902 19.871 25.0644 19.1935 25.0644 18.5161C25.0644 17.8387 25.2902 17.3871 25.516 16.7097C25.7418 16.2581 25.9677 15.5806 26.4193 15.3548L27.0967 14.6774C26.8709 14 26.4193 13.3226 25.9677 12.871L25.516 13.0968C24.8386 13.3226 24.387 13.3226 23.7096 13.3226C23.0322 13.3226 22.5806 13.0968 22.1289 12.871C21.6773 12.6452 21.2257 12.1935 20.7741 11.7419C20.3225 11.2903 20.0967 10.6129 20.0967 10.1613L19.8709 9.03226C19.1935 9.03226 18.516 9.03226 17.8386 9.03226L17.6128 10.1613C17.387 10.8387 17.1612 11.2903 16.9354 11.7419C16.4838 12.1935 16.0322 12.6452 15.5806 12.871C14.6773 13.0968 14.2257 13.0968 13.5483 13.3226C12.8709 13.3226 12.4193 13.3226 11.7419 13.0968L10.8386 12.871C10.387 13.5484 10.1612 14 9.70959 14.6774L10.387 15.3548C10.8386 15.8065 11.0644 16.2581 11.2902 16.7097C11.516 17.1613 11.7419 17.8387 11.7419 18.5161C11.7419 19.1935 11.516 19.6452 11.2902 20.3226C11.0644 20.7742 10.8386 21.4516 10.387 21.6774L9.70959 22.3548C9.9354 23.0323 10.387 23.7097 10.8386 24.1613L11.7419 23.9355C12.4193 23.7097 12.8709 23.7097 13.5483 23.7097C14.2257 23.7097 14.6773 23.9355 15.1289 24.1613C15.5806 24.3871 16.0322 24.8387 16.4838 25.2903C16.9354 25.7419 17.1612 26.1935 17.1612 26.871L17.387 28C18.0644 28 18.7419 28 19.4193 28L19.6451 26.871C19.8709 26.1935 20.0967 25.7419 20.3225 25.2903C20.7741 24.8387 21.2257 24.3871 21.6773 24.1613C22.1289 23.9355 22.8064 23.7097 23.258 23.7097C23.9354 23.7097 24.387 23.7097 25.0644 23.9355L25.9677 24.1613C26.4193 23.4839 26.6451 23.0323 27.0967 22.3548L26.4193 21.6774C26.1935 21.4516 25.7418 20.7742 25.516 20.3226ZM20.0967 20.0968C19.6451 20.5484 19.1935 20.7742 18.516 20.7742C17.8386 20.7742 17.387 20.5484 16.9354 20.0968C16.4838 19.6452 16.258 19.1935 16.258 18.5161C16.258 17.8387 16.4838 17.3871 16.9354 16.9355C17.387 16.4839 17.8386 16.2581 18.516 16.2581C19.1935 16.2581 19.6451 16.4839 20.0967 16.9355C20.5483 17.3871 20.7741 17.8387 20.7741 18.5161C20.7741 19.1935 20.5483 19.871 20.0967 20.0968Z" fill="#0E305D"/>
</svg>
