<svg width="36" height="27" viewBox="0 0 36 27" fill="none" xmlns="http://www.w3.org/2000/svg">
<path d="M15.6327 7.53667H12.2299C11.1745 7.53667 10.3155 6.67764 10.3155 5.62225V2.38071C10.3155 1.32533 11.1745 0.466293 12.2299 0.466293H15.482V1.42175H12.2299C11.7022 1.42175 11.2709 1.85127 11.2709 2.38071V5.62225C11.2709 6.14994 11.7005 6.58121 12.2299 6.58121H15.6327V7.53667Z" fill="#1F4177"/>
<path d="M18.7322 7.53667H15.6309V6.58121H18.7322C19.2599 6.58121 19.6912 6.1517 19.6912 5.62225V2.38071C19.6912 1.85302 19.2617 1.42175 18.7322 1.42175H15.4802V0.466293H18.7322C19.7876 0.466293 20.6466 1.32533 20.6466 2.38071V5.62225C20.6466 6.67764 19.7876 7.53667 18.7322 7.53667Z" fill="#183866"/>
<path d="M15.4801 1.88638H12.7382C12.456 1.88638 12.2281 1.65847 12.2281 1.37622V0.510169C12.2281 0.227915 12.456 7.62939e-06 12.7382 7.62939e-06H15.4801V1.88638Z" fill="#FFBC00"/>
<path d="M18.2238 1.88634H15.4819V0.00172424H18.2238C18.506 0.00172424 18.7339 0.229631 18.7339 0.511885V1.37793C18.7322 1.65843 18.5043 1.88634 18.2238 1.88634Z" fill="#FFA300"/>
<path d="M15.4801 25.6325H2.78397C1.24648 25.6325 0 24.386 0 22.8485V7.01953C0 5.48204 1.24648 4.23556 2.78397 4.23556H15.4801V25.6325Z" fill="#D33C3C"/>
<path d="M15.4802 4.23735H28.1763C29.7138 4.23735 30.9603 5.48383 30.9603 7.02132V25.5379C30.9603 25.5905 30.9165 25.6343 30.8639 25.6343H15.4802V4.23735Z" fill="#BC2626"/>
<path d="M15.4801 9.79128H13.571V19.8472H15.4801V9.79128Z" fill="white"/>
<path d="M17.3893 9.79128H15.4802V19.8472H17.3893V9.79128Z" fill="white"/>
<path d="M10.4522 12.91V14.8209V16.7301H15.4802V14.8209V12.91H10.4522Z" fill="white"/>
<path d="M15.4802 12.91V14.8209V16.7301H20.5099V14.8209V12.91H15.4802Z" fill="white"/>
<path d="M35.3397 17.4927V24.7647C35.3397 25.7236 34.5631 26.5003 33.6041 26.5003H26.4794C25.5204 26.5003 24.7438 25.7236 24.7438 24.7647V17.4927C24.7438 16.5337 25.5204 15.7571 26.4794 15.7571H33.6041C34.5631 15.7571 35.3397 16.5337 35.3397 17.4927Z" fill="#D33C3C"/>
<path d="M35.3397 17.4927V24.7647C35.3397 25.7236 34.5631 26.5003 33.6041 26.5003H30.0417V15.7571H33.6041C34.5631 15.7571 35.3397 16.5337 35.3397 17.4927Z" fill="#183866"/>
<path d="M30.0417 18.6586H24.742V23.8426H30.0417V18.6586Z" fill="#FFD607"/>
<path d="M35.3415 18.6586H30.0417V23.8426H35.3415V18.6586Z" fill="#FFBD07"/>
<path d="M30.0417 13.1976H25.338V15.7572H30.0417V13.1976Z" fill="#FFD607"/>
<path d="M34.7454 13.1976H30.0417V15.7572H34.7454V13.1976Z" fill="#FFBD07"/>
</svg>
