<svg width="15" height="16" viewBox="0 0 15 16" fill="none" xmlns="http://www.w3.org/2000/svg">
<path d="M2.8 0C4.224 0 4.936 1.728 3.936 2.736C2.928 3.736 1.2 3.024 1.2 1.6C1.2 1.17565 1.36857 0.768687 1.66863 0.468629C1.96869 0.168571 2.37565 0 2.8 0ZM1.6 4H4C4.42435 4 4.83131 4.16857 5.13137 4.46863C5.43143 4.76869 5.6 5.17565 5.6 5.6V10H4.4V16H1.2V10H0V5.6C0 5.17565 0.168571 4.76869 0.468629 4.46863C0.768687 4.16857 1.17565 4 1.6 4ZM12.4 4.8H14L11.6 1.6L9.2 4.8H10.8V11.2H9.2L11.6 14.4L14 11.2H12.4V4.8ZM14.8 0H8.4V1.6H14.8V0ZM14.8 14.4H8.4V16H14.8" fill="white"/>
</svg>
